<svg width="45" height="45" viewBox="0 0 45 45" fill="none" xmlns="http://www.w3.org/2000/svg">
<path d="M41.5649 19.6875H39.3756C39.2509 19.236 38.9826 18.8375 38.6113 18.552C38.24 18.2666 37.7858 18.1098 37.3175 18.1054H34.9805V12.3904C34.9831 12.2835 34.9573 12.1778 34.9056 12.0842C34.8539 11.9906 34.7783 11.9124 34.6864 11.8576L18.2001 2.33539C18.1072 2.28138 18.0017 2.25293 17.8942 2.25293C17.7867 2.25293 17.6812 2.28138 17.5882 2.33539L1.09688 11.8576C1.00357 11.9117 0.92616 11.9895 0.872463 12.083C0.818766 12.1765 0.790674 12.2826 0.791019 12.3904V31.435C0.791022 31.543 0.81945 31.6491 0.873448 31.7426C0.927446 31.8361 1.00511 31.9138 1.09864 31.9678L17.5917 41.49C17.6852 41.544 17.7913 41.5725 17.8993 41.5725C18.0101 41.5725 18.119 41.5442 18.2157 41.49L26.8945 36.4841V40.1029C26.8936 40.4474 26.9611 40.7887 27.093 41.107C27.2249 41.4253 27.4186 41.7143 27.6629 41.9572C27.9073 42.2001 28.1974 42.3921 28.5164 42.5222C28.8355 42.6522 29.1771 42.7177 29.5217 42.7148H41.5649C41.9103 42.718 42.2529 42.6529 42.5731 42.5232C42.8932 42.3934 43.1846 42.2017 43.4303 41.9589C43.6761 41.7162 43.8714 41.4272 44.005 41.1087C44.1386 40.7901 44.208 40.4483 44.209 40.1029V22.3402C44.2086 21.6382 43.9301 20.9651 43.4346 20.4679C42.9391 19.9708 42.2668 19.6902 41.5649 19.6875ZM37.3394 19.3359C37.5762 19.3359 37.8034 19.43 37.9709 19.5975C38.1383 19.7649 38.2324 19.9921 38.2324 20.229V20.2885C38.2324 20.5254 38.1383 20.7525 37.9709 20.92C37.8034 21.0875 37.5762 21.1816 37.3394 21.1816H33.7642C33.5273 21.1816 33.3001 21.0875 33.1327 20.92C32.9652 20.7525 32.8711 20.5254 32.8711 20.2885V20.229C32.8711 19.9921 32.9652 19.7649 33.1327 19.5975C33.3001 19.43 33.5273 19.3359 33.7642 19.3359H37.3394ZM17.8993 3.5786L24.7525 7.53526L9.49096 16.3465L2.63786 12.3898L17.8993 3.5786ZM17.3145 39.8916L2.02149 31.0798V13.4547L17.3145 22.2665V39.8916ZM17.8993 21.2009L10.7214 17.0568L25.9829 8.24568L33.1611 12.3898L17.8993 21.2009ZM26.8945 22.3402V35.0633L18.5449 39.8916V22.2665L33.75 13.4547V18.1054H33.7691C33.3007 18.1098 32.8466 18.2666 32.4753 18.552C32.1039 18.8374 31.8356 19.236 31.7109 19.6875H29.5217C28.8215 19.6909 28.1514 19.9722 27.6587 20.4697C27.166 20.9672 26.8911 21.64 26.8945 22.3402ZM42.9785 40.1029C42.9777 40.2868 42.9403 40.4687 42.8686 40.638C42.7968 40.8073 42.6921 40.9607 42.5606 41.0892C42.4291 41.2178 42.2733 41.3189 42.1024 41.3867C41.9315 41.4545 41.7488 41.4877 41.5649 41.4843H29.5217C29.3387 41.4874 29.1569 41.4539 28.9871 41.3858C28.8172 41.3176 28.6627 41.2162 28.5326 41.0875C28.4025 40.9588 28.2994 40.8054 28.2294 40.6363C28.1594 40.4672 28.1239 40.2859 28.125 40.1029V22.3402C28.1231 22.155 28.1578 21.9713 28.227 21.7996C28.2963 21.6279 28.3987 21.4715 28.5284 21.3394C28.6581 21.2073 28.8126 21.1021 28.9831 21.0298C29.1535 20.9574 29.3365 20.9194 29.5217 20.9179H31.7349C31.8669 21.3534 32.1364 21.7344 32.5032 22.0038C32.8699 22.2732 33.3141 22.4164 33.7691 22.4121H37.3175C37.7725 22.4164 38.2167 22.2732 38.5834 22.0038C38.9501 21.7344 39.2196 21.3534 39.3515 20.9179H41.5649C41.9406 20.9203 42.3001 21.0712 42.5649 21.3376C42.8297 21.6041 42.9784 21.9645 42.9785 22.3402V40.1029Z" fill="#2B2F31"/>
<path d="M30.2299 28.5645H30.8739C31.0371 28.5645 31.1935 28.4996 31.3089 28.3843C31.4243 28.2689 31.4891 28.1124 31.4891 27.9492C31.4891 27.786 31.4243 27.6296 31.3089 27.5142C31.1935 27.3988 31.0371 27.334 30.8739 27.334H30.8496V25.6641H32.5465C32.5852 25.7878 32.6633 25.8954 32.7689 25.9704C32.8746 26.0455 33.0019 26.0838 33.1315 26.0795C33.2948 26.08 33.4517 26.0156 33.5677 25.9005C33.6836 25.7854 33.7492 25.6291 33.75 25.4657V25.0517C33.7486 24.8876 33.6825 24.7306 33.5661 24.6148C33.4497 24.4991 33.2923 24.434 33.1281 24.4336H30.2299C30.1492 24.434 30.0694 24.4503 29.995 24.4816C29.9206 24.5129 29.8531 24.5586 29.7964 24.616C29.7396 24.6734 29.6948 24.7415 29.6644 24.8162C29.634 24.891 29.6186 24.971 29.6192 25.0517V27.9499C29.6187 28.0304 29.6341 28.1103 29.6646 28.1848C29.6951 28.2593 29.74 28.3271 29.7967 28.3842C29.8535 28.4413 29.921 28.4866 29.9953 28.5176C30.0697 28.5485 30.1494 28.5644 30.2299 28.5645Z" fill="#2B2F31"/>
<path d="M30.2344 34.1895H33.1348C33.2979 34.1895 33.4544 34.1246 33.5698 34.0093C33.6852 33.8939 33.75 33.7374 33.75 33.5742V30.6738C33.75 30.5107 33.6852 30.3542 33.5698 30.2388C33.4544 30.1234 33.2979 30.0586 33.1348 30.0586H30.2344C30.0712 30.0586 29.9147 30.1234 29.7993 30.2388C29.684 30.3542 29.6191 30.5107 29.6191 30.6738V33.5742C29.6191 33.7374 29.684 33.8939 29.7993 34.0093C29.9147 34.1246 30.0712 34.1895 30.2344 34.1895ZM30.8496 31.2891H32.5195V32.959H30.8496V31.2891Z" fill="#2B2F31"/>
<path d="M30.874 38.584H30.8497V36.9141H32.5133C32.5165 37.0759 32.583 37.23 32.6985 37.3433C32.814 37.4567 32.9693 37.5202 33.1311 37.5204C33.2929 37.5206 33.4484 37.4573 33.5641 37.3442C33.6798 37.2311 33.7466 37.0771 33.7501 36.9153V36.3225C33.7494 36.1561 33.6842 35.9965 33.5682 35.8774C33.4522 35.7582 33.2944 35.6887 33.1281 35.6836H30.2299C30.0648 35.6891 29.9085 35.7591 29.7943 35.8785C29.6802 35.9979 29.6173 36.1573 29.6192 36.3225V39.2207C29.6191 39.3001 29.635 39.3788 29.6658 39.452C29.6967 39.5251 29.742 39.5914 29.7989 39.6468C29.8559 39.7021 29.9234 39.7455 29.9974 39.7743C30.0715 39.8031 30.1505 39.8168 30.2299 39.8145H30.874C31.0372 39.8145 31.1937 39.7496 31.309 39.6343C31.4244 39.5189 31.4892 39.3624 31.4892 39.1992C31.4892 39.0361 31.4244 38.8796 31.309 38.7642C31.1937 38.6488 31.0372 38.584 30.874 38.584Z" fill="#2B2F31"/>
<path d="M34.5447 25.1888L32.7429 26.9905L32.1949 26.4424C32.1377 26.3852 32.0699 26.3399 31.9953 26.309C31.9206 26.2781 31.8406 26.2621 31.7598 26.2621C31.679 26.2621 31.599 26.2781 31.5243 26.309C31.4497 26.3399 31.3819 26.3852 31.3247 26.4424C31.2676 26.4995 31.2223 26.5673 31.1914 26.642C31.1604 26.7166 31.1445 26.7966 31.1445 26.8774C31.1445 26.9582 31.1604 27.0382 31.1914 27.1129C31.2223 27.1875 31.2676 27.2553 31.3247 27.3125L32.308 28.2956C32.3651 28.3528 32.4329 28.3981 32.5076 28.429C32.5822 28.4599 32.6622 28.4758 32.743 28.4758C32.8238 28.4758 32.9038 28.4599 32.9785 28.429C33.0531 28.3981 33.121 28.3528 33.1781 28.2956L35.4151 26.0586C35.5305 25.9432 35.5953 25.7867 35.5953 25.6236C35.5953 25.4604 35.5305 25.3039 35.4151 25.1885C35.2997 25.0731 35.1432 25.0083 34.98 25.0083C34.8168 25.0083 34.6603 25.0731 34.545 25.1885L34.5447 25.1888Z" fill="#2B2F31"/>
<path d="M34.5447 36.5486L32.7429 38.3504L32.1949 37.8022C32.1377 37.7451 32.0699 37.6998 31.9953 37.6688C31.9206 37.6379 31.8406 37.622 31.7598 37.622C31.679 37.622 31.599 37.6379 31.5243 37.6688C31.4497 37.6998 31.3819 37.7451 31.3247 37.8022C31.2676 37.8594 31.2223 37.9272 31.1914 38.0018C31.1604 38.0765 31.1445 38.1565 31.1445 38.2373C31.1445 38.3181 31.1604 38.3981 31.1914 38.4727C31.2223 38.5474 31.2676 38.6152 31.3247 38.6723L32.308 39.6555C32.3651 39.7126 32.4329 39.7579 32.5076 39.7889C32.5822 39.8198 32.6622 39.8357 32.743 39.8357C32.8238 39.8357 32.9038 39.8198 32.9785 39.7889C33.0531 39.7579 33.121 39.7126 33.1781 39.6555L35.4151 37.4185C35.5305 37.3031 35.5953 37.1466 35.5953 36.9834C35.5953 36.8203 35.5305 36.6638 35.4151 36.5484C35.2997 36.433 35.1432 36.3682 34.98 36.3682C34.8168 36.3682 34.6603 36.433 34.545 36.5484L34.5447 36.5486Z" fill="#2B2F31"/>
<path d="M40.8564 25.9277H36.9922C36.829 25.9277 36.6725 25.9926 36.5572 26.1079C36.4418 26.2233 36.377 26.3798 36.377 26.543C36.377 26.7061 36.4418 26.8626 36.5572 26.978C36.6725 27.0934 36.829 27.1582 36.9922 27.1582H40.8564C41.0196 27.1582 41.176 27.0934 41.2914 26.978C41.4068 26.8626 41.4716 26.7061 41.4716 26.543C41.4716 26.3798 41.4068 26.2233 41.2914 26.1079C41.176 25.9926 41.0196 25.9277 40.8564 25.9277Z" fill="#2B2F31"/>
<path d="M40.8564 31.5527H36.9922C36.829 31.5527 36.6725 31.6176 36.5572 31.7329C36.4418 31.8483 36.377 32.0048 36.377 32.168C36.377 32.3311 36.4418 32.4876 36.5572 32.603C36.6725 32.7184 36.829 32.7832 36.9922 32.7832H40.8564C41.0196 32.7832 41.176 32.7184 41.2914 32.603C41.4068 32.4876 41.4716 32.3311 41.4716 32.168C41.4716 32.0048 41.4068 31.8483 41.2914 31.7329C41.176 31.6176 41.0196 31.5527 40.8564 31.5527Z" fill="#2B2F31"/>
<path d="M40.8564 37.1777H36.9922C36.829 37.1777 36.6725 37.2426 36.5572 37.3579C36.4418 37.4733 36.377 37.6298 36.377 37.793C36.377 37.9561 36.4418 38.1126 36.5572 38.228C36.6725 38.3434 36.829 38.4082 36.9922 38.4082H40.8564C41.0196 38.4082 41.176 38.3434 41.2914 38.228C41.4068 38.1126 41.4716 37.9561 41.4716 37.793C41.4716 37.6298 41.4068 37.4733 41.2914 37.3579C41.176 37.2426 41.0196 37.1777 40.8564 37.1777Z" fill="#2B2F31"/>
</svg>
