<svg width="30" height="30" viewBox="0 0 30 30" fill="none" xmlns="http://www.w3.org/2000/svg">
<path fill-rule="evenodd" clip-rule="evenodd" d="M13.5706 10.4224C14.2182 9.54961 14.4505 8.62979 13.718 7.81788C12.0744 5.51791 10.9689 4.09561 10.2755 3.41067C8.95736 2.10851 6.7889 2.28464 5.64723 3.40956C5.03403 4.01376 4.82645 4.22124 4.19684 4.86076C0.689768 8.36971 2.82856 15.7875 8.51424 21.4788C14.1986 27.1688 21.6157 29.3087 25.1301 25.7923C25.7111 25.2322 26.203 24.74 26.591 24.3299C27.7097 23.1474 27.8796 21.0747 26.5836 19.728C25.9192 19.0377 24.5629 17.9855 22.1661 16.2712C21.4321 15.6148 20.5617 15.757 19.7637 16.2805C19.38 16.5324 19.1006 16.787 18.5731 17.315L17.6154 18.2734C17.4892 18.3997 15.7762 17.5418 14.1134 15.8773C12.4496 14.2119 11.5924 12.4988 11.7179 12.3733L12.6764 11.4143C12.8437 11.2468 12.9237 11.1657 13.0264 11.0578C13.2401 10.8332 13.4171 10.6293 13.5706 10.4224ZM19.3821 20.0412L20.3401 19.0827C20.6305 18.792 20.8186 18.6134 20.9716 18.4903C23.0712 19.998 24.2871 20.946 24.7839 21.4622C25.082 21.7719 25.0357 22.3373 24.7765 22.6113C24.4177 22.9904 23.9516 23.4568 23.3796 24.0085C21.1071 26.282 15.1199 24.5545 10.2814 19.7114C5.44144 14.8667 3.71485 8.87848 5.97025 6.62186C6.59732 5.98497 6.796 5.78639 7.40044 5.19081C7.62707 4.96751 8.2444 4.91736 8.5201 5.18969C9.05392 5.71704 10.0442 6.98498 11.5009 9.01416C11.4255 9.10778 11.3313 9.21358 11.2167 9.33404C11.1325 9.42247 11.0624 9.49352 10.9092 9.64689L9.9517 10.6049C8.32276 12.2337 9.71002 15.0059 12.3462 17.6447C14.9806 20.2817 17.7537 21.6704 19.3821 20.0412ZM17.0687 2.58679C22.4729 3.24184 26.758 7.52691 27.413 12.931L24.9437 13.3425C24.467 8.98964 21.0101 5.53287 16.6572 5.05609L17.0687 2.58679ZM16.2454 7.52752C19.5472 7.82284 22.177 10.4526 22.4722 13.7545L19.9951 14.1674C19.89 11.9163 18.0835 10.1099 15.8325 10.0047L16.2454 7.52752Z" fill="#2B2F31"/>
</svg>
