<svg width="45" height="45" viewBox="0 0 45 45" fill="none" xmlns="http://www.w3.org/2000/svg">
<path d="M39.375 8.17383C39.8604 8.17383 40.2539 7.78034 40.2539 7.29492V2.63672C40.2539 1.18283 39.0711 0 37.6172 0H2.63672C1.18283 0 0 1.18283 0 2.63672V42.3633C0 43.8172 1.18283 45 2.63672 45H37.6172C39.0711 45 40.2539 43.8172 40.2539 42.3633V39.9023C40.2539 39.4169 39.8604 39.0234 39.375 39.0234C38.8896 39.0234 38.4961 39.4169 38.4961 39.9023V42.3633C38.4961 42.8479 38.1018 43.2422 37.6172 43.2422H2.63672C2.15209 43.2422 1.75781 42.8479 1.75781 42.3633V2.63672C1.75781 2.15209 2.15209 1.75781 2.63672 1.75781H37.6172C38.1018 1.75781 38.4961 2.15209 38.4961 2.63672V7.29492C38.4961 7.78034 38.8896 8.17383 39.375 8.17383Z" fill="#2B2F31" fill-opacity="0.75"/>
<path d="M35.1563 4.21875H5.09668C4.61126 4.21875 4.21777 4.61224 4.21777 5.09766V23.4668C4.21777 23.9522 4.61126 24.3457 5.09668 24.3457C5.5821 24.3457 5.97559 23.9522 5.97559 23.4668V5.97656H34.2774V7.38281C34.2774 7.86823 34.671 8.26172 35.1563 8.26172C35.6418 8.26172 36.0352 7.86823 36.0352 7.38281V5.09766C36.0352 4.61224 35.6418 4.21875 35.1563 4.21875Z" fill="#2B2F31" fill-opacity="0.75"/>
<path d="M5.71807 26.0974C5.55459 25.9339 5.32871 25.8398 5.09668 25.8398C4.86553 25.8398 4.63877 25.9339 4.47529 26.0974C4.31182 26.2608 4.21777 26.4876 4.21777 26.7188C4.21777 26.9499 4.31182 27.1767 4.47529 27.3401C4.63877 27.5036 4.86553 27.5977 5.09668 27.5977C5.32871 27.5977 5.55459 27.5036 5.71807 27.3401C5.88242 27.1767 5.97559 26.9499 5.97559 26.7188C5.97559 26.4876 5.88242 26.2608 5.71807 26.0974Z" fill="#2B2F31" fill-opacity="0.75"/>
<path d="M35.1563 37.0898C34.6709 37.0898 34.2774 37.4833 34.2774 37.9688V39.0234H5.97559V30.1025C5.97559 29.6171 5.5821 29.2236 5.09668 29.2236C4.61126 29.2236 4.21777 29.6171 4.21777 30.1025V39.9023C4.21777 40.3878 4.61126 40.7812 5.09668 40.7812H35.1563C35.6418 40.7812 36.0352 40.3878 36.0352 39.9023V37.9688C36.0352 37.4833 35.6418 37.0898 35.1563 37.0898Z" fill="#2B2F31" fill-opacity="0.75"/>
<path d="M27.2385 31.0549C26.8953 30.7115 26.3388 30.7115 25.9955 31.0548L24.2585 32.7919L23.1787 31.7121C22.497 31.0304 21.3879 31.0304 20.7061 31.7121L20.0035 32.4147C19.6603 32.7579 19.6603 33.3144 20.0035 33.6577C20.3467 34.0009 20.9032 34.0009 21.2465 33.6577L21.9425 32.9618L23.0222 34.0416C23.363 34.3825 23.8108 34.5529 24.2585 34.5529C24.7062 34.5529 25.1539 34.3825 25.4947 34.0416L27.2385 32.2979C27.5817 31.9547 27.5817 31.3982 27.2385 31.0549Z" fill="#2B2F31" fill-opacity="0.75"/>
<path d="M44.5957 18.4379C44.983 17.8337 45.0987 17.0894 44.9129 16.3961C44.7271 15.7028 44.2549 15.1162 43.6173 14.7866C43.3408 14.6437 43.1715 14.3505 43.186 14.0396C43.2193 13.3226 42.9474 12.6203 42.4399 12.1128C41.9324 11.6053 41.2304 11.3329 40.5131 11.3667C40.2007 11.3818 39.909 11.2118 39.7661 10.9354C39.4365 10.2978 38.8498 9.8256 38.1566 9.6398C37.463 9.45391 36.719 9.56966 36.1149 9.95699C35.8529 10.125 35.5143 10.125 35.2524 9.95699C34.6481 9.56957 33.9041 9.45399 33.2107 9.6398C32.5174 9.8256 31.9307 10.2978 31.6011 10.9354C31.4582 11.2119 31.1642 11.3807 30.8542 11.3667C30.1369 11.3332 29.4349 11.6053 28.9274 12.1128C28.4199 12.6203 28.1479 13.3226 28.1812 14.0395C28.1957 14.3505 28.0264 14.6437 27.75 14.7866C27.1124 15.1162 26.6402 15.7028 26.4544 16.3961C26.3657 16.7269 26.3464 17.0692 26.3919 17.4024H11.055C10.5695 17.4024 10.176 17.7959 10.176 18.2813C10.176 18.7667 10.5695 19.1602 11.055 19.1602H26.8409C26.822 19.2084 26.8001 19.2558 26.7715 19.3005C26.3841 19.9047 26.2685 20.649 26.4543 21.3423C26.4798 21.4374 26.5111 21.5304 26.5472 21.6211H11.0547C10.5693 21.6211 10.1758 22.0146 10.1758 22.5C10.1758 22.9855 10.5693 23.3789 11.0547 23.3789H28.1288C28.167 23.4794 28.1862 23.5878 28.181 23.6988C28.1477 24.4158 28.4196 25.118 28.9272 25.6256C29.4346 26.1331 30.1366 26.4056 30.8539 26.3717C31.1644 26.3565 31.458 26.5265 31.6009 26.803C31.7064 27.0072 31.8387 27.1942 31.9921 27.3606V35.5689C31.9921 35.924 32.2057 36.2442 32.5336 36.3805C32.8613 36.5168 33.2391 36.4425 33.4909 36.192L35.6835 34.0108L37.8761 36.192C38.0441 36.3592 38.2682 36.4478 38.4962 36.4478C38.6097 36.4478 38.7243 36.4258 38.8334 36.3804C39.1612 36.2441 39.3749 35.9239 39.3749 35.5689V27.3605C39.5283 27.1942 39.6605 27.0072 39.7661 26.8029C39.909 26.5264 40.2026 26.3575 40.5131 26.3716C41.2308 26.4055 41.9323 26.1331 42.4398 25.6255C42.9474 25.118 43.2193 24.4157 43.186 23.6987C43.1715 23.3878 43.3409 23.0946 43.6173 22.9517C44.2548 22.6221 44.7271 22.0355 44.9129 21.3422C45.0987 20.6488 44.983 19.9046 44.5957 19.3003C44.4276 19.0385 44.4276 18.6999 44.5957 18.4379ZM37.6171 33.4549L36.3033 32.148C35.9604 31.8069 35.4065 31.8069 35.0636 32.148L33.7499 33.4549V28.1822C34.2757 28.207 34.8027 28.0695 35.2523 27.7814C35.5143 27.6133 35.8528 27.6134 36.1148 27.7814C36.5299 28.0475 37.011 28.1854 37.4964 28.1854C37.5367 28.1854 37.5768 28.1834 37.6171 28.1815V33.4549ZM43.2149 20.8873C43.156 21.1072 43.0122 21.2858 42.81 21.3903C41.9255 21.8476 41.3837 22.7858 41.43 23.7805C41.4407 24.0079 41.3578 24.2217 41.1969 24.3827C41.0359 24.5437 40.8221 24.6263 40.5947 24.6159C39.5995 24.5699 38.6618 25.1113 38.2045 25.9959C38.1 26.1981 37.9214 26.3419 37.7015 26.4008C37.4817 26.4596 37.255 26.4245 37.0635 26.3017C36.6442 26.0329 36.1639 25.8986 35.6834 25.8986C35.2031 25.8986 34.7226 26.033 34.3034 26.3017C34.1118 26.4244 33.8852 26.4596 33.6653 26.4008C33.4454 26.3419 33.2668 26.198 33.1623 25.9959C32.705 25.1114 31.7675 24.5694 30.7721 24.6159C30.5452 24.6264 30.3309 24.5437 30.1699 24.3827C30.0089 24.2217 29.9261 24.0079 29.9368 23.7804C29.9694 23.0784 29.7081 22.4053 29.2411 21.9088C29.2274 21.8938 29.2134 21.879 29.1987 21.8649C29.0132 21.6769 28.7983 21.5152 28.5568 21.3903C28.3546 21.2858 28.2108 21.1072 28.152 20.8873C28.0931 20.6674 28.1282 20.4408 28.2511 20.2493C28.7886 19.4109 28.7886 18.3276 28.2511 17.4893C28.1283 17.2977 28.0931 17.071 28.152 16.8511C28.2108 16.6313 28.3547 16.4526 28.5569 16.3481C29.4414 15.8908 29.9831 14.9527 29.9368 13.958C29.9262 13.7306 30.0091 13.5167 30.17 13.3557C30.3309 13.1947 30.5452 13.1121 30.7722 13.1225C31.7675 13.1687 32.7051 12.6272 33.1623 11.7426C33.2668 11.5403 33.4455 11.3966 33.6654 11.3377C33.8852 11.2789 34.1119 11.3139 34.3034 11.4368C35.1418 11.9743 36.2252 11.9743 37.0634 11.4368C37.255 11.314 37.4816 11.2787 37.7015 11.3377C37.9214 11.3966 38.1 11.5404 38.2045 11.7426C38.6618 12.6271 39.5999 13.169 40.5947 13.1225C40.8222 13.1122 41.0359 13.1947 41.1969 13.3557C41.3579 13.5167 41.4407 13.7306 41.43 13.958C41.3838 14.9526 41.9254 15.8908 42.8101 16.3481C43.0122 16.4526 43.156 16.6312 43.2149 16.8511C43.2738 17.071 43.2387 17.2977 43.1158 17.4892C42.5783 18.3275 42.5783 19.4109 43.1158 20.2492C43.2387 20.4408 43.2739 20.6674 43.2149 20.8873Z" fill="#2B2F31" fill-opacity="0.75"/>
<path d="M39.8639 16.4784C39.5207 16.1351 38.9641 16.1351 38.6209 16.4784L35.7037 19.3956L34.5424 18.2343C34.1992 17.8911 33.6427 17.8911 33.2994 18.2343C32.9562 18.5775 32.9562 19.1341 33.2994 19.4774L35.0822 21.2601C35.2538 21.4318 35.4787 21.5176 35.7036 21.5176C35.9286 21.5176 36.1536 21.4318 36.3251 21.2601L39.8639 17.7214C40.2071 17.3782 40.2071 16.8217 39.8639 16.4784Z" fill="#2B2F31" fill-opacity="0.75"/>
<path d="M10.7288 10.6286C10.5653 10.4651 10.3386 10.3711 10.1074 10.3711C9.87627 10.3711 9.64951 10.4651 9.48604 10.6286C9.32256 10.7921 9.22852 11.0188 9.22852 11.25C9.22852 11.4812 9.32256 11.7079 9.48604 11.8714C9.64951 12.0349 9.87627 12.1289 10.1074 12.1289C10.3386 12.1289 10.5653 12.0349 10.7288 11.8714C10.8923 11.7079 10.9863 11.4812 10.9863 11.25C10.9863 11.0188 10.8923 10.7921 10.7288 10.6286Z" fill="#2B2F31" fill-opacity="0.75"/>
<path d="M17.666 10.3711H13.3887C12.9033 10.3711 12.5098 10.7646 12.5098 11.25C12.5098 11.7354 12.9033 12.1289 13.3887 12.1289H17.666C18.1515 12.1289 18.545 11.7354 18.545 11.25C18.545 10.7646 18.1515 10.3711 17.666 10.3711Z" fill="#2B2F31" fill-opacity="0.75"/>
<path d="M26.6162 25.8398H16.5684C16.0829 25.8398 15.6895 26.2333 15.6895 26.7188C15.6895 27.2042 16.0829 27.5977 16.5684 27.5977H26.6161C27.1015 27.5977 27.495 27.2042 27.495 26.7188C27.495 26.2333 27.1016 25.8398 26.6162 25.8398Z" fill="#2B2F31" fill-opacity="0.75"/>
</svg>
