<svg width="24" height="23" viewBox="0 0 24 23" fill="none" xmlns="http://www.w3.org/2000/svg">
<g clip-path="url(#clip0)">
<path d="M21.5146 3.08996L20.7229 2.79158L21.1669 1.95504C21.2852 1.73235 21.2705 1.47394 21.1278 1.26375C20.9852 1.05356 20.7392 0.928109 20.4699 0.928109H20.1623L19.8916 0.406297C19.7655 0.163115 19.5052 0.00751998 19.2124 0.00023186C18.9206 -0.00653876 18.6507 0.135386 18.5104 0.371969L18.2799 0.760741L17.6283 0.405952C17.3891 0.275671 17.0905 0.273429 16.849 0.40013C16.6075 0.526831 16.4574 0.764363 16.4574 1.02014V1.30567C16.2101 1.34806 15.9978 1.49895 15.8923 1.71687C15.7638 1.98239 15.8217 2.28987 16.0398 2.50014L16.7294 3.1647C16.7235 3.1829 16.7174 3.20105 16.712 3.21951L16.2671 4.73975C15.981 5.71748 15.396 6.59107 14.5753 7.26597C14.3823 7.42472 14.3657 7.69735 14.5383 7.8749C14.7108 8.05249 15.0071 8.06775 15.2002 7.90901C16.1568 7.12219 16.8388 6.10384 17.1724 4.96396L17.6173 3.44376C17.7534 2.97875 18.2139 2.65397 18.7374 2.65397C19.1372 2.65397 19.5158 2.84859 19.7254 3.16194L19.772 3.23159C19.7138 3.30343 19.6793 3.39249 19.6793 3.489V3.97825C19.6793 4.21652 19.4686 4.41041 19.2096 4.41041C19.0547 4.41041 18.9099 4.48075 18.8226 4.5983C18.7352 4.71586 18.7166 4.86555 18.7728 4.99825L19.0409 5.63102C19.7966 7.41441 20.1798 9.28918 20.1798 11.2033C20.1798 12.7582 19.26 14.1898 17.7792 14.9395C17.6823 14.9885 17.6073 15.0675 17.5676 15.1626L17.443 15.4611C16.8101 16.9762 15.1996 17.9942 13.4354 17.9942H11.9531C11.9439 17.9939 11.9346 17.9934 11.9253 17.9935C10.454 17.9802 9.26143 16.8754 9.26143 15.5187C9.26143 15.2805 9.05153 15.0875 8.79268 15.0875H7.38503C6.41884 15.0875 5.63275 14.3643 5.63275 13.4754C5.63275 13.2372 5.42284 13.0441 5.164 13.0441C4.04256 13.0441 3.13018 12.2048 3.13018 11.173V10.3668H6.06606C7.97621 10.3668 9.86687 10.0946 11.6856 9.55759C11.9321 9.4848 12.0678 9.242 11.9887 9.01521C11.9096 8.78846 11.6458 8.66357 11.3992 8.73636C9.67318 9.24597 7.87886 9.50433 6.06611 9.50433H2.66162C2.40278 9.50433 2.19287 9.6974 2.19287 9.93558V11.1731C2.19287 12.5451 3.29715 13.6842 4.73096 13.8777C4.9404 15.0516 6.05087 15.95 7.38521 15.95H8.35426C8.56979 17.48 9.91576 18.688 11.5937 18.8402L12.2965 20.7675C11.8287 20.8305 11.4678 21.2011 11.4678 21.6488C11.4678 21.887 11.6777 22.08 11.9366 22.08C12.1954 22.08 12.4053 21.887 12.4053 21.6488C12.4053 21.6326 12.4196 21.6195 12.4372 21.6195H12.9409C12.9421 21.6195 12.9432 21.6196 12.9444 21.6196C12.9455 21.6196 12.9467 21.6195 12.9478 21.6195H13.4252C13.4428 21.6195 13.4572 21.6326 13.4572 21.6488C13.4572 21.887 13.6671 22.08 13.9259 22.08C14.1848 22.08 14.3947 21.887 14.3947 21.6488C14.3947 21.6389 14.3934 21.6293 14.3931 21.6195H14.5415C14.5427 21.6195 14.5438 21.6196 14.545 21.6196C14.5461 21.6196 14.5473 21.6195 14.5484 21.6195H15.0259C15.0435 21.6195 15.0578 21.6326 15.0578 21.6488C15.0578 21.887 15.2677 22.08 15.5266 22.08C15.7854 22.08 15.9953 21.887 15.9953 21.6488C15.9953 21.157 15.5604 20.757 15.0259 20.757H14.8821L14.1716 18.8087C14.9677 18.7053 15.7263 18.4351 16.3975 18.0109C17.2731 17.4575 17.9372 16.6828 18.3183 15.7706L18.383 15.6156C20.0742 14.695 21.1175 13.0191 21.1175 11.2034C21.1175 9.18167 20.7128 7.2015 19.9146 5.31784L19.8378 5.13668C20.2994 4.92403 20.6169 4.48463 20.6169 3.9783V3.92029H21.3369C21.5609 3.92029 21.7536 3.77453 21.7968 3.57236C21.8401 3.37015 21.7218 3.16806 21.5146 3.08996ZM13.6728 20.7569C13.6372 20.7569 13.6025 20.7609 13.5692 20.7679C13.5221 20.7614 13.4742 20.7569 13.4252 20.7569H13.2815L12.5885 18.8567H13.2003L13.8933 20.7569H13.6728ZM18.7375 1.79147C18.1507 1.79147 17.6077 2.01736 17.221 2.38927L16.9213 2.10046C17.0086 2.06644 17.0892 2.0174 17.1595 1.95461C17.3113 1.81903 17.3949 1.63717 17.3949 1.44255V1.28109L17.9466 1.58145C18.1267 1.67952 18.3457 1.70643 18.5475 1.65537C18.7493 1.60427 18.9225 1.47804 19.0228 1.30899L19.1819 1.04058L19.3602 1.38433C19.4883 1.63109 19.7632 1.79057 20.0604 1.79057H20.211L20.002 2.18421C19.6419 1.93452 19.1977 1.79147 18.7375 1.79147Z" fill="#2B2F31"/>
<path d="M7.72853 11.5725C7.57628 11.5725 7.43355 11.6405 7.34571 11.7549C7.25786 11.8693 7.23583 12.0157 7.28669 12.1478C7.81 13.5066 9.17997 14.4371 10.733 14.5081C10.9391 15.2345 11.6584 15.7721 12.5116 15.7721C13.8885 15.7721 15.1358 15.0226 15.6892 13.8627L15.7018 13.8363C15.896 13.4293 15.9944 12.9975 15.9944 12.5531V10.4824C15.9944 10.3347 15.9123 10.1973 15.7767 10.1182C15.6412 10.0392 15.471 10.0293 15.3258 10.0923C13.0928 11.0606 10.6076 11.5725 8.13897 11.5725H7.72853V11.5725ZM15.0569 11.1468V12.5532C15.0569 12.8775 14.9851 13.1926 14.8434 13.4897L14.8308 13.5161C14.4268 14.3627 13.5165 14.9097 12.5115 14.9097C12.015 14.9097 11.6111 14.538 11.6111 14.0813C11.6111 13.8431 11.4012 13.6501 11.1424 13.6501H10.9244C9.92519 13.6501 9.00986 13.179 8.47839 12.4319C10.7284 12.3916 12.9818 11.9507 15.0569 11.1468Z" fill="#2B2F31"/>
<path d="M16.8757 13.4282C16.6488 13.5431 16.5661 13.8053 16.691 14.014C16.7764 14.1567 16.9367 14.2374 17.1021 14.2374C17.1785 14.2374 17.256 14.2202 17.3277 14.1839C18.5048 13.588 19.2387 12.4499 19.2427 11.2138C19.2435 10.9757 19.0343 10.782 18.7755 10.7813C18.5185 10.7809 18.306 10.973 18.3052 11.2112C18.3021 12.1339 17.7543 12.9834 16.8757 13.4282Z" fill="#2B2F31"/>
<path d="M18.6066 9.05908C18.3495 9.08655 18.1652 9.30058 18.1951 9.53717C18.1953 9.53837 18.1959 9.54316 18.1961 9.54437L18.1973 9.55377C18.2262 9.7725 18.4284 9.93293 18.662 9.93293C18.6809 9.93293 18.7 9.93189 18.7193 9.92974C18.9762 9.90093 19.1592 9.68591 19.1279 9.44949L19.1265 9.43906L19.1264 9.43776C19.0964 9.20113 18.8639 9.03157 18.6066 9.05908Z" fill="#2B2F31"/>
<path d="M13.2998 8.954C13.4231 8.954 13.544 8.90785 13.6312 8.82764C13.7184 8.747 13.7686 8.63616 13.7686 8.52231C13.7686 8.4089 13.7184 8.29806 13.6312 8.21742C13.544 8.13721 13.4231 8.09106 13.2998 8.09106C13.1765 8.09106 13.0556 8.13721 12.9684 8.21742C12.8812 8.29806 12.8311 8.4089 12.8311 8.52231C12.8311 8.63616 12.8812 8.747 12.9684 8.82764C13.0556 8.9079 13.1765 8.954 13.2998 8.954Z" fill="#2B2F31"/>
</g>
<defs>
<clipPath id="clip0">
<rect width="24" height="22.08" fill="white"/>
</clipPath>
</defs>
</svg>
