<svg width="67" height="75" viewBox="0 0 67 75" fill="none" xmlns="http://www.w3.org/2000/svg">
<g clip-path="url(#clip0)">
<path d="M56.5905 53.6133C55.1673 53.6133 54.0148 54.9242 54.0148 56.543C54.0148 58.1617 55.1673 59.4727 56.5905 59.4727C58.0136 59.4727 59.1661 58.1617 59.1661 56.543C59.1661 54.9242 58.0136 53.6133 56.5905 53.6133Z" fill="#2B2F31"/>
<path d="M55.3027 41.8945C54.5918 41.8945 54.0148 42.5508 54.0148 43.3594C54.0148 44.1679 54.5918 44.8242 55.3027 44.8242C56.0135 44.8242 56.5905 44.1679 56.5905 43.3594C56.5905 42.5508 56.0135 41.8945 55.3027 41.8945Z" fill="#2B2F31"/>
<path d="M17.1832 53.6133C15.76 53.6133 14.6075 54.9242 14.6075 56.543C14.6075 58.1617 15.76 59.4727 17.1832 59.4727C18.6063 59.4727 19.7588 58.1617 19.7588 56.543C19.7588 54.9242 18.6063 53.6133 17.1832 53.6133Z" fill="#2B2F31"/>
<path d="M61.4801 36.129L59.2597 26.0262C60.049 25.1673 60.4539 24.028 60.4539 22.8516C60.4539 20.4283 58.7209 18.457 56.5905 18.457H46.2879V14.0625C46.2879 11.6392 44.5549 9.66797 42.4244 9.66797H4.82012C2.68969 9.66797 0.956665 11.6392 0.956665 14.0625V52.1484C0.956665 54.5717 2.68969 56.543 4.82012 56.543H9.45627C9.45627 61.3895 12.9223 65.332 17.1832 65.332C21.4441 65.332 24.9101 61.3895 24.9101 56.543H48.8635C48.8635 61.3895 52.3296 65.332 56.5905 65.332C60.8513 65.332 64.3174 61.3895 64.3174 56.543C64.3174 56.4594 64.3139 56.3765 64.3118 56.2929C65.8135 55.6904 66.893 54.0602 66.893 52.1484V43.3594C66.893 39.7179 64.5448 36.6898 61.4801 36.129ZM56.8727 27.2461L58.8044 36.0352H48.109L51.0619 32.6763C51.5649 32.1041 51.5649 31.1771 51.0619 30.6049C50.5588 30.0327 49.7439 30.0327 49.2408 30.6049L46.2879 33.9632V27.2461H56.8727ZM57.8783 22.8516C57.8783 23.6601 57.3013 24.3164 56.5905 24.3164H46.2879V21.3867H56.5905C57.3008 21.3867 57.8783 22.0436 57.8783 22.8516ZM17.1832 62.4023C14.3429 62.4023 12.0319 59.7736 12.0319 56.543C12.0319 53.2682 14.3847 50.6836 17.1832 50.6836C19.9882 50.6836 22.3345 53.2751 22.3345 56.543C22.3345 59.7736 20.0234 62.4023 17.1832 62.4023ZM24.4679 53.6133C23.3924 50.1566 20.4812 47.7539 17.1832 47.7539C13.8837 47.7539 10.9715 50.1583 9.89795 53.6133H4.82012C4.10981 53.6133 3.5323 52.9564 3.5323 52.1484V14.0625C3.5323 13.2545 4.10981 12.5977 4.82012 12.5977H42.4244C43.1348 12.5977 43.7123 13.2545 43.7123 14.0625V53.6133H24.4679ZM56.5905 62.4023C53.7502 62.4023 51.4392 59.7736 51.4392 56.543C51.4392 53.2682 53.792 50.6836 56.5905 50.6836C59.3955 50.6836 61.7417 53.2751 61.7417 56.543C61.7417 59.7736 59.4307 62.4023 56.5905 62.4023ZM63.7836 53.3335C62.6412 50.0273 59.7989 47.7539 56.5905 47.7539C53.2909 47.7539 50.3787 50.1583 49.3052 53.6133H46.2879V38.9648H60.4539C62.1326 38.9648 63.5643 40.1894 64.096 41.8945H60.4539C59.7426 41.8945 59.1661 42.5503 59.1661 43.3594C59.1661 44.1685 59.7426 44.8242 60.4539 44.8242H64.3174V52.1484C64.3174 52.6354 64.1061 53.0668 63.7836 53.3335Z" fill="#2B2F31"/>
<path d="M23.6223 18.457C17.2315 18.457 12.0319 24.3713 12.0319 31.6406C12.0319 38.9099 17.2315 44.8242 23.6223 44.8242C30.0131 44.8242 35.2127 38.9099 35.2127 31.6406C35.2127 24.3713 30.0131 18.457 23.6223 18.457ZM23.6223 41.8945C18.6516 41.8945 14.6076 37.2946 14.6076 31.6406C14.6076 25.9867 18.6516 21.3867 23.6223 21.3867C28.593 21.3867 32.637 25.9867 32.637 31.6406C32.637 37.2946 28.593 41.8945 23.6223 41.8945Z" fill="#2B2F31"/>
<path d="M28.7736 30.1758H24.9101V25.7812C24.9101 24.9722 24.3336 24.3164 23.6223 24.3164C22.911 24.3164 22.3345 24.9722 22.3345 25.7812V31.6406C22.3345 32.4497 22.911 33.1055 23.6223 33.1055H28.7736C29.4849 33.1055 30.0614 32.4497 30.0614 31.6406C30.0614 30.8315 29.4849 30.1758 28.7736 30.1758Z" fill="#2B2F31"/>
</g>
<defs>
<clipPath id="clip0">
<rect width="65.9363" height="75" fill="white" transform="translate(0.956665)"/>
</clipPath>
</defs>
</svg>
