<svg width="75" height="75" viewBox="0 0 75 75" fill="none" xmlns="http://www.w3.org/2000/svg">
<g clip-path="url(#clip0)">
<path d="M73.9297 32.5846L73.9183 32.5446C73.8008 32.0586 73.4404 31.6595 72.9559 31.4989C72.776 31.4391 68.4795 30.0413 62.3449 30.4719C56.6975 30.8679 48.3495 32.9562 40.6494 40.6562C32.9495 48.3563 30.8613 56.7041 30.4655 62.3512C30.0355 68.486 31.4332 72.7821 31.493 72.962C31.6386 73.4008 31.983 73.7451 32.4217 73.8907C32.5777 73.9425 35.8279 75.0002 40.6884 75.0002C41.4335 75.0002 42.2169 74.9753 43.0324 74.9181C48.6795 74.5222 57.0273 72.434 64.7274 64.7342C78.3516 51.1097 74.7834 35.5628 73.9297 32.5846ZM58.8862 33.8737C60.0442 33.6501 61.2235 33.4925 62.4243 33.4033C65.3914 33.183 67.905 33.4402 69.6166 33.7317C69.5435 33.782 69.4735 33.8385 69.4086 33.9034L58.8862 44.4258V33.8737ZM55.9565 34.597V47.3555L46.1379 57.1742V39.8596C46.1379 39.8117 46.1352 39.7645 46.1307 39.7178C49.1692 37.3654 52.4525 35.6549 55.9565 34.597ZM33.3879 62.556C33.9129 55.0669 37.0529 48.3957 42.721 42.7278C42.8826 42.5663 43.045 42.4074 43.2082 42.2499V60.0387C43.2082 60.0596 43.2104 60.0799 43.2113 60.1005L33.717 69.5947C33.4321 67.9144 33.184 65.4659 33.3879 62.556ZM42.9529 71.9865C40.004 72.2054 37.5029 71.9526 35.7918 71.6631L40.3677 67.0872C40.3727 67.0872 40.3774 67.088 40.3824 67.088H57.2711C52.934 69.9574 48.1409 71.6013 42.9529 71.9865ZM62.6558 62.6624C62.1358 63.1824 61.607 63.6809 61.0702 64.1584H43.2967L51.7986 55.6565H68.0763C66.7299 57.9929 64.9624 60.3558 62.6558 62.6624ZM69.562 52.7268H54.7281L71.4801 35.9748C71.5426 35.9123 71.5969 35.8449 71.6457 35.7749C72.2533 39.3091 72.6371 45.7341 69.562 52.7268Z" fill="#2B2F31"/>
<path d="M34.3506 40.6556C26.6506 32.9556 18.3026 30.8674 12.6552 30.4713C6.52085 30.041 2.22404 31.4387 2.04415 31.4983C1.55958 31.6591 1.19923 32.0581 1.08175 32.5442L1.07033 32.5842C0.216618 35.5625 -3.35159 51.1094 10.2727 64.7338C14.5952 69.0562 19.5459 72.0607 24.9871 73.6636C25.1252 73.7043 25.2647 73.7236 25.4018 73.7236C26.0346 73.7236 26.6183 73.3103 26.8063 72.6725C27.0349 71.8964 26.5911 71.0819 25.8152 70.8534C20.849 69.3903 16.3168 66.6344 12.3445 62.6622C8.88203 59.1997 6.63101 55.6104 5.20206 52.1741H19.7195L26.7897 59.2443C27.0758 59.5303 27.4506 59.6733 27.8255 59.6733C28.2004 59.6733 28.5754 59.5303 28.8613 59.2443C29.4333 58.6722 29.4333 57.7447 28.8613 57.1725L27.2463 55.5578V38.536C29.0009 39.7307 30.6799 41.1284 32.2789 42.7273C32.8509 43.2993 33.7785 43.2993 34.3506 42.7273C34.9228 42.1553 34.9227 41.2277 34.3506 40.6556ZM12.4502 33.3939C13.0917 33.4389 13.7268 33.5045 14.3561 33.5879V42.6677L5.50762 33.8192C5.47393 33.7855 5.43863 33.754 5.40259 33.7242C7.08335 33.4387 9.53564 33.1893 12.4502 33.3939ZM4.16187 49.2445V49.2444C2.50411 43.6601 2.84762 38.7361 3.3505 35.7963C3.3776 35.8285 3.40558 35.8604 3.4359 35.8909L16.7895 49.2447H4.16187V49.2445ZM24.3168 52.6283L17.2857 45.5972V34.1228C19.7334 34.6987 22.0795 35.5814 24.3168 36.7672V52.6283Z" fill="#2B2F31"/>
<path d="M27.6666 65.8593C24.8359 65.0254 22.1485 63.6887 19.679 61.8867C19.0254 61.4097 18.1091 61.553 17.6321 62.2064C17.1552 62.8599 17.2985 63.7763 17.9519 64.2533C20.6941 66.2546 23.684 67.7404 26.8385 68.6697C26.9767 68.7104 27.1161 68.7297 27.2532 68.7297C27.886 68.7297 28.4698 68.3163 28.6577 67.6785C28.8864 66.9023 28.4427 66.0879 27.6666 65.8593Z" fill="#2B2F31"/>
<path d="M16.1561 58.8604L16.151 58.8553C15.579 58.2835 14.6542 58.286 14.0819 58.8579C13.5099 59.4299 13.5125 60.3601 14.0845 60.9321C14.3706 61.2182 14.7455 61.3612 15.1203 61.3612C15.4952 61.3612 15.8702 61.2182 16.1561 60.9321C16.7281 60.3601 16.7281 59.4326 16.1561 58.8604Z" fill="#2B2F31"/>
<path d="M18.7722 18.6029H10.8405V12.231H16.3043C17.1134 12.231 17.7692 11.5752 17.7692 10.7662C17.7692 9.95716 17.1134 9.30135 16.3043 9.30135H10.8405V2.92944H18.772C19.581 2.92944 20.2369 2.27363 20.2369 1.4646C20.2369 0.655565 19.581 -0.000244141 18.772 -0.000244141H9.37579C8.56676 -0.000244141 7.91095 0.655565 7.91095 1.4646V20.0676C7.91095 20.8767 8.56676 21.5325 9.37579 21.5325H18.7722C19.5812 21.5325 20.237 20.8767 20.237 20.0676C20.237 19.2586 19.5812 18.6029 18.7722 18.6029Z" fill="#2B2F31"/>
<path d="M56.2494 0C50.3128 0 45.4831 4.82973 45.4831 10.7663C45.4831 16.7029 50.3128 21.5326 56.2494 21.5326C62.1859 21.5326 67.0157 16.7029 67.0157 10.7663C67.0157 4.82973 62.1859 0 56.2494 0ZM56.2494 18.603C51.9282 18.603 48.4126 15.0876 48.4126 10.7663C48.4126 6.44501 51.9281 2.92954 56.2494 2.92954C60.5707 2.92954 64.0861 6.44501 64.0861 10.7663C64.0861 15.0876 60.5705 18.603 56.2494 18.603Z" fill="#2B2F31"/>
<path d="M39.7756 16.3078C36.7202 19.3633 31.7482 19.3633 28.6929 16.3078C25.6374 13.2524 25.6374 8.2806 28.6929 5.22509C31.7482 2.16958 36.7201 2.16958 39.7756 5.22509C40.3476 5.79711 41.2751 5.79711 41.8473 5.22509C42.4193 4.65307 42.4193 3.72553 41.8473 3.15336C37.6495 -1.04429 30.8192 -1.04429 26.6214 3.15336C22.4236 7.35116 22.4236 14.1816 26.6214 18.3792C28.7203 20.4782 31.4772 21.5276 34.2344 21.5276C36.9915 21.5276 39.7485 20.478 41.8475 18.3794C42.4195 17.8073 42.4195 16.8798 41.8475 16.3076C41.2753 15.7358 40.3478 15.7358 39.7756 16.3078Z" fill="#2B2F31"/>
<path d="M37.5099 24.9546C36.7009 24.9546 36.045 25.6104 36.045 26.4194V30.5619C36.045 31.3709 36.7009 32.0267 37.5099 32.0267C38.3189 32.0267 38.9747 31.3709 38.9747 30.5619V26.4194C38.9746 25.6104 38.3188 24.9546 37.5099 24.9546Z" fill="#2B2F31"/>
<path d="M46.0582 28.9901C45.4861 28.4179 44.5587 28.4181 43.9867 28.9901L40.9997 31.9769C40.4277 32.5489 40.4276 33.4765 40.9997 34.0485C41.2858 34.3346 41.6607 34.4776 42.0355 34.4776C42.4104 34.4776 42.7854 34.3344 43.0713 34.0485L46.0581 31.0617C46.6303 30.4895 46.6304 29.562 46.0582 28.9901Z" fill="#2B2F31"/>
<path d="M34.0051 31.9337L31.0133 28.9417C30.4412 28.3695 29.5138 28.3698 28.9418 28.9417C28.3697 29.5137 28.3696 30.4413 28.9418 31.0133L31.9336 34.0052C32.2196 34.2913 32.5945 34.4343 32.9694 34.4343C33.3442 34.4343 33.7192 34.2912 34.0051 34.0052C34.5772 33.4332 34.5773 32.5057 34.0051 31.9337Z" fill="#2B2F31"/>
</g>
<defs>
<clipPath id="clip0">
<rect width="75" height="75" fill="white"/>
</clipPath>
</defs>
</svg>
