<svg width="24" height="25" viewBox="0 0 24 25" fill="none" xmlns="http://www.w3.org/2000/svg">
<g clip-path="url(#clip0)">
<path d="M20.4844 0.107422H3.51562C1.57727 0.107422 0 1.68469 0 3.62305V20.5918C0 22.5302 1.57727 24.1074 3.51562 24.1074H20.4844C22.4227 24.1074 24 22.5302 24 20.5918V3.62305C24 1.68469 22.4227 0.107422 20.4844 0.107422ZM12.0469 18.3887C8.55743 18.3887 5.71875 15.55 5.71875 12.0605C5.71875 8.57111 8.55743 5.73242 12.0469 5.73242C15.5363 5.73242 18.375 8.57111 18.375 12.0605C18.375 15.55 15.5363 18.3887 12.0469 18.3887ZM19.0781 7.13867C17.915 7.13867 16.9688 6.19238 16.9688 5.0293C16.9688 3.86621 17.915 2.91992 19.0781 2.91992C20.2412 2.91992 21.1875 3.86621 21.1875 5.0293C21.1875 6.19238 20.2412 7.13867 19.0781 7.13867Z" fill="#2B2F31"/>
<path d="M19.0781 4.32617C18.6901 4.32617 18.375 4.6413 18.375 5.0293C18.375 5.4173 18.6901 5.73242 19.0781 5.73242C19.4661 5.73242 19.7812 5.4173 19.7812 5.0293C19.7812 4.6413 19.4661 4.32617 19.0781 4.32617Z" fill="#2B2F31"/>
<path d="M12.0469 7.13867C9.33325 7.13867 7.125 9.34692 7.125 12.0605C7.125 14.7742 9.33325 16.9824 12.0469 16.9824C14.7605 16.9824 16.9688 14.7742 16.9688 12.0605C16.9688 9.34692 14.7605 7.13867 12.0469 7.13867Z" fill="#2B2F31"/>
</g>
<defs>
<clipPath id="clip0">
<rect width="24" height="24" fill="white" transform="translate(0 0.107422)"/>
</clipPath>
</defs>
</svg>
