<svg width="75" height="75" viewBox="0 0 75 75" fill="none" xmlns="http://www.w3.org/2000/svg">
<path d="M68.6231 18.4114C65.2031 15.6857 60.376 13.4542 54.2758 11.779C42.5438 8.55723 29.3137 8.20947 24.1701 8.20947C10.8426 8.20947 0 19.0522 0 32.3797V42.6204C0 55.948 10.8426 66.7906 24.1701 66.7906C30.3155 66.7906 34.9308 64.8655 39.8171 62.8273C44.8702 60.7196 50.0952 58.5402 57.4437 58.5402C67.1243 58.5402 75 50.6643 75 40.9839V30.7432C75 25.9328 72.8544 21.7837 68.6231 18.4114ZM67.3895 43.4535C67.9441 44.0428 68.8712 44.0705 69.4603 43.516C70.4537 42.5806 71.3276 41.5383 72.0703 40.4161V40.9839C72.0703 49.0492 65.5088 55.6105 57.4437 55.6105C49.5086 55.6105 44.0084 57.9047 38.6893 60.1234C34.0813 62.0454 29.729 63.8609 24.1701 63.8609C12.9171 63.8609 3.68145 55.0641 2.9748 43.9862C7.08809 51.4676 15.0464 56.5496 24.1701 56.5496C30.3155 56.5496 34.9308 54.6245 39.8171 52.5863C44.8702 50.4786 50.0952 48.2992 57.4437 48.2992C57.9896 48.2992 58.5412 48.2734 59.0832 48.2227C59.8887 48.1473 60.4805 47.4332 60.405 46.6276C60.3296 45.8223 59.6146 45.2306 58.81 45.3059C58.3584 45.3481 57.8988 45.3696 57.4437 45.3696C49.5086 45.3696 44.0084 47.6639 38.6893 49.8825C34.0813 51.8045 29.729 53.6201 24.1701 53.6201C12.4581 53.6201 2.92969 44.0917 2.92969 32.3798C2.92969 20.6678 12.4581 11.1393 24.1701 11.1393C29.1949 11.1393 42.1116 11.477 53.5 14.6042C65.8223 17.9882 72.0703 23.4181 72.0703 30.7432C72.0703 34.7415 70.3869 38.6195 67.452 41.3828C66.8629 41.9374 66.835 42.8645 67.3895 43.4535Z" fill="#2B2F31"/>
<path d="M66.1851 44.3883C65.8405 43.6564 64.9676 43.3421 64.2359 43.6867C64.2254 43.6915 64.2115 43.6984 64.2011 43.7035C63.4776 44.0653 63.1843 44.9453 63.546 45.6688C63.8026 46.182 64.32 46.4788 64.8575 46.4788C65.0746 46.4788 65.2949 46.4303 65.5026 46.3282C66.2208 45.9777 66.5265 45.1139 66.1851 44.3883Z" fill="#2B2F31"/>
<path d="M34.7443 14.4819L34.6689 14.4757C33.8612 14.4127 33.1564 15.013 33.0921 15.8196C33.0278 16.626 33.6294 17.3319 34.4358 17.3963L34.5107 17.4022C34.5504 17.4054 34.5898 17.407 34.629 17.407C35.385 17.407 36.0262 16.8255 36.0877 16.0589C36.1522 15.2524 35.5507 14.5465 34.7443 14.4819Z" fill="#2B2F31"/>
<path d="M68.2258 26.7968C66.7728 23.9251 63.5399 21.4434 58.6166 19.4207C54.6329 17.784 50.2763 16.7501 47.323 16.1708C45.5531 15.8238 43.6983 15.5138 41.8101 15.2499C41.0093 15.1368 40.2687 15.6963 40.1564 16.4978C40.0444 17.299 40.6031 18.0392 41.4043 18.1513C43.2398 18.4079 45.0414 18.7089 46.7592 19.0459C56.8212 21.0191 63.6927 24.3263 65.6116 28.1191C66.0147 28.9161 66.2107 29.7744 66.2107 30.7429C66.2107 35.5771 62.2778 39.51 57.4435 39.51C52.5556 39.51 47.8091 40.3088 42.9326 41.9522C40.8323 42.6602 38.793 43.5064 36.8209 44.325C35.5164 44.8662 34.1676 45.4261 32.8287 45.9334C29.45 47.2139 26.8604 47.7603 24.1699 47.7603C15.6887 47.7603 8.78872 40.8605 8.78872 32.3794C8.78872 23.8983 15.6887 16.9983 24.1699 16.9983C25.8244 16.9983 27.5041 17.0296 29.1621 17.0915C29.4435 17.1019 29.7251 17.1131 30.007 17.1256C30.8146 17.1622 31.4994 16.535 31.535 15.7267C31.5707 14.9185 30.9443 14.2343 30.1362 14.1987C29.8476 14.1859 29.559 14.1744 29.271 14.1637C27.577 14.1005 25.8606 14.0686 24.1697 14.0686C14.0731 14.0686 5.85889 22.2827 5.85889 32.3794C5.85889 42.4759 14.073 50.69 24.1697 50.69C27.2364 50.69 30.1365 50.0868 33.8668 48.6729C35.2483 48.1494 36.6186 47.5807 37.9438 47.0307C39.8705 46.2312 41.8628 45.4043 43.8682 44.7284C48.4382 43.1882 52.8788 42.4396 57.4435 42.4396C63.8932 42.4398 69.1404 37.1926 69.1404 30.7431C69.1404 29.3043 68.8412 28.0135 68.2258 26.7968Z" fill="#2B2F31"/>
<path d="M25.5729 19.8955C21.4778 19.8955 18.146 22.9167 18.146 26.6304C18.146 30.3441 21.4778 33.3653 25.5729 33.3653C29.6682 33.3653 32.9998 30.3441 32.9998 26.6304C32.9998 22.9167 29.6682 19.8955 25.5729 19.8955ZM25.5729 30.4355C23.0931 30.4355 21.0757 28.7285 21.0757 26.6303C21.0757 24.5322 23.0931 22.825 25.5729 22.825C28.0527 22.825 30.0701 24.532 30.0701 26.6303C30.0701 28.7285 28.0527 30.4355 25.5729 30.4355Z" fill="#2B2F31"/>
</svg>
