<svg width="45" height="45" viewBox="0 0 45 45" fill="none" xmlns="http://www.w3.org/2000/svg">
<g clip-path="url(#clip0)">
<path d="M38.2354 15.0374C38.2349 15.0374 38.2343 15.0374 38.2339 15.0374H0.644286C0.288876 15.037 0.000376264 15.3247 3.67865e-07 15.6801C3.67865e-07 15.6806 3.67865e-07 15.6812 3.67865e-07 15.6816V33.7246C-0.000375528 34.08 0.287373 34.3686 0.642782 34.3689C0.643252 34.3689 0.643816 34.3689 0.644286 34.3689H26.2052C26.561 34.3689 26.8495 34.0804 26.8495 33.7246C26.8495 33.3689 26.561 33.0804 26.2052 33.0804H1.28857V16.3259H37.5896V17.937C37.5892 18.2924 37.877 18.5809 38.2324 18.5813C38.2328 18.5813 38.2334 18.5813 38.2339 18.5813C38.5893 18.5817 38.8778 18.2939 38.8782 17.9385C38.8782 17.938 38.8782 17.9375 38.8782 17.937V15.6816C38.8785 15.3262 38.5908 15.0378 38.2354 15.0374Z" fill="black"/>
<path d="M33.8652 12.0461L3.79357 5.28C3.62667 5.24269 3.45179 5.27295 3.30716 5.3642C3.16272 5.4562 3.06057 5.60157 3.02298 5.76866L1.5194 12.5348C1.44215 12.8823 1.6613 13.2266 2.00882 13.3039C2.35633 13.3811 2.70065 13.162 2.7779 12.8144L4.1409 6.67908L33.5826 13.3031C33.6292 13.3139 33.6768 13.3193 33.7247 13.3189C34.0804 13.3182 34.3684 13.0293 34.3678 12.6735C34.3673 12.3727 34.1586 12.1124 33.8652 12.0461Z" fill="black"/>
<path d="M30.2132 8.31781L12.1702 0.799894C11.8566 0.669176 11.4953 0.803465 11.3432 1.10738L9.83965 4.11454C9.66984 4.42861 9.78674 4.82095 10.1009 4.99076C10.415 5.16057 10.8073 5.04366 10.9771 4.72951C10.9838 4.7172 10.9901 4.70461 10.9959 4.69183V4.69333L12.2296 2.22445L29.7155 9.51006C30.0448 9.64745 30.4231 9.49202 30.5605 9.16273C30.6979 8.83364 30.5425 8.4553 30.2132 8.31781Z" fill="black"/>
<path d="M30.6679 18.0444H24.7009C24.3451 18.0444 24.0566 18.3329 24.0566 18.6887C24.0566 19.0445 24.3451 19.333 24.7009 19.333H30.6679C31.0237 19.333 31.3122 19.0445 31.3122 18.6887C31.3122 18.3329 31.0237 18.0444 30.6679 18.0444Z" fill="black"/>
<path d="M18.688 18.0876C15.0342 18.0876 12.0723 21.0496 12.0723 24.7034C12.076 28.3556 15.0358 31.3154 18.688 31.3192C22.3418 31.3192 25.3038 28.3572 25.3038 24.7034C25.3038 21.0496 22.3418 18.0876 18.688 18.0876ZM18.688 30.1163C15.6985 30.1163 13.2751 27.6929 13.2751 24.7034C13.2784 21.7153 15.6999 19.2938 18.688 19.2905C21.6775 19.2905 24.1009 21.7139 24.1009 24.7034C24.1009 27.6929 21.6775 30.1163 18.688 30.1163Z" fill="black"/>
<path d="M36.7306 20.1924C32.7462 20.1924 28.4609 21.1336 28.4609 23.1995V41.2425C28.4609 43.3085 32.7462 44.2497 36.7306 44.2497C40.7151 44.2497 45.0004 43.3085 45.0004 41.2425V23.1995C45.0004 21.1336 40.7151 20.1924 36.7306 20.1924ZM43.4968 41.2313C43.3833 41.6485 41.1286 42.7461 36.7306 42.7461C32.3327 42.7461 30.078 41.6485 29.9645 41.2425V40.0607C31.5643 40.8666 34.2069 41.2425 36.7306 41.2425C39.2544 41.2425 41.8977 40.8629 43.4968 40.06V41.2313ZM43.4968 38.2241C43.3833 38.6413 41.1286 39.739 36.7306 39.739C32.3327 39.739 30.078 38.6413 29.9645 38.2354V37.0536C31.5643 37.8595 34.2069 38.2354 36.7306 38.2354C39.2544 38.2354 41.8977 37.8557 43.4968 37.0528V38.2241ZM43.4968 35.2169C43.3833 35.6342 41.1286 36.7318 36.7306 36.7318C32.3327 36.7318 30.078 35.6342 29.9645 35.2282V34.0464C31.5643 34.8523 34.2069 35.2282 36.7306 35.2282C39.2544 35.2282 41.8977 34.8486 43.4968 34.0456V35.2169ZM43.4968 32.2098C43.3833 32.627 41.1286 33.7246 36.7306 33.7246C32.3327 33.7246 30.078 32.627 29.9645 32.221V31.0392C31.5643 31.8451 34.2069 32.221 36.7306 32.221C39.2544 32.221 41.8977 31.8414 43.4968 31.0385V32.2098ZM43.4968 29.2026C43.3833 29.6198 41.1286 30.7175 36.7306 30.7175C32.3327 30.7175 30.078 29.6198 29.9645 29.2139V28.0321C31.5643 28.8342 34.2069 29.2139 36.7306 29.2139C39.2544 29.2139 41.8977 28.8342 43.4968 28.0313V29.2026ZM43.4968 26.1954C43.3833 26.6127 41.1286 27.7103 36.7306 27.7103C32.3327 27.7103 30.078 26.6127 29.9645 26.2067V25.0249C31.5643 25.8271 34.2069 26.2067 36.7306 26.2067C39.2544 26.2067 41.8977 25.8271 43.4968 25.0241V26.1954ZM36.7306 24.7031C32.3394 24.7031 30.0856 23.6085 29.9645 23.2131V23.2086C30.0856 22.7898 32.3394 21.696 36.7306 21.696C41.091 21.696 43.3464 22.774 43.4968 23.1995C43.3464 23.6251 41.091 24.7031 36.7306 24.7031Z" fill="black"/>
<path d="M12.6724 30.0724H6.98961L4.29518 27.1253V22.2387L7.27078 19.333H12.6724C13.0282 19.333 13.3167 19.0445 13.3167 18.6887C13.3167 18.3329 13.0282 18.0444 12.6724 18.0444H7.00915C6.84075 18.0441 6.67883 18.1097 6.55808 18.2271L3.19982 21.5027C3.07437 21.6493 3.00558 21.836 3.00586 22.0289V27.3757C3.00586 27.5365 3.06591 27.6914 3.17426 27.8102L6.22879 31.1512C6.35086 31.2848 6.52359 31.361 6.70468 31.3609H12.6724C13.0282 31.3609 13.3167 31.0724 13.3167 30.7167C13.3167 30.3609 13.0283 30.0724 12.6724 30.0724Z" fill="black"/>
<path d="M19.0629 23.9513H18.3111C18.0773 23.9513 17.9352 23.8205 17.9352 23.7634C17.9352 23.7063 18.0773 23.5754 18.3111 23.5754H20.1906C20.6058 23.5754 20.9424 23.2388 20.9424 22.8236C20.9424 22.4085 20.6058 22.0719 20.1906 22.0719H19.4388C19.4388 21.6567 19.1022 21.3201 18.687 21.3201C18.2718 21.3201 17.9352 21.6567 17.9352 22.0719V22.1057C17.1014 22.2234 16.4697 22.9184 16.4316 23.7596C16.4855 24.7453 17.3251 25.5027 18.3111 25.4549H19.0629C19.2967 25.4549 19.4388 25.5857 19.4388 25.6429C19.4388 25.7 19.2967 25.8308 19.0629 25.8308H17.1834C16.7683 25.8308 16.4316 26.1674 16.4316 26.5826C16.4316 26.9978 16.7683 27.3344 17.1834 27.3344H17.9352C17.9352 27.7496 18.2718 28.0862 18.687 28.0862C19.1022 28.0862 19.4388 27.7496 19.4388 27.3344V27.3006C20.2726 27.1828 20.9043 26.4879 20.9424 25.6466C20.8885 24.6609 20.049 23.9036 19.0629 23.9513Z" fill="black"/>
</g>
<defs>
<clipPath id="clip0">
<rect width="45" height="45" fill="white"/>
</clipPath>
</defs>
</svg>
