<svg width="24" height="23" viewBox="0 0 24 23" fill="none" xmlns="http://www.w3.org/2000/svg">
<g clip-path="url(#clip0)">
<path d="M18.8255 8.79706C18.9127 8.71684 18.9629 8.60558 18.9629 8.49216C18.9629 8.37874 18.9128 8.26748 18.8255 8.18727C18.7379 8.10706 18.6175 8.06091 18.4942 8.06091C18.3704 8.06091 18.2499 8.10706 18.1623 8.18727C18.0751 8.26748 18.0249 8.37874 18.0249 8.49216C18.0249 8.60558 18.0751 8.71684 18.1623 8.79706C18.2494 8.87727 18.3704 8.92341 18.4942 8.92341C18.6174 8.92341 18.7378 8.87727 18.8255 8.79706Z" fill="#2B2F31"/>
<path d="M23.5312 7.70438C22.519 7.70438 21.5315 7.3821 20.7471 6.7988C21.1672 6.57317 21.7179 6.18582 21.9339 5.62787C22.1243 5.13641 22.0565 4.75592 21.9967 4.42024C21.9487 4.15071 21.9072 3.91796 21.9832 3.60138C22.0156 3.46575 21.9752 3.324 21.8744 3.22059C21.7737 3.11717 21.6248 3.06465 21.4748 3.07974C21.0331 3.12386 20.6567 3.17026 20.3131 3.28187C20.3084 3.22421 20.307 3.16379 20.3108 3.09846C20.319 2.95977 20.254 2.82595 20.1363 2.73897C20.0186 2.65198 19.8625 2.62244 19.7171 2.65974C18.083 3.0781 17.4866 4.19443 17.2765 4.82264C17.2528 4.8934 17.1831 4.94054 17.1112 4.93476C16.9916 4.92523 16.8704 4.9204 16.7509 4.9204H7.38647C5.20158 4.9204 3.29452 6.03432 2.29997 7.67704C1.89989 7.7306 1.49752 7.60924 1.2097 7.34484C1.0342 7.18356 0.9375 6.96923 0.9375 6.74122C0.9375 6.51322 1.0342 6.29893 1.20975 6.13765C1.46344 5.90456 1.87627 5.90456 2.12995 6.13765C2.31323 6.30596 2.60995 6.30575 2.79291 6.13722C2.97581 5.96868 2.97558 5.69562 2.79244 5.52734C2.17341 4.95865 1.1663 4.95865 0.547312 5.52734C0.194344 5.8516 0 6.28272 0 6.74131C0 7.1999 0.194344 7.63102 0.547266 7.95519C0.912188 8.29045 1.38338 8.4927 1.88119 8.54074C1.67855 9.08438 1.5683 9.66713 1.5683 10.2732C1.5683 10.8698 1.67442 11.456 1.88362 12.0154C1.96791 12.2406 2.23467 12.3602 2.47941 12.2829C2.72419 12.2054 2.85436 11.96 2.77012 11.7348C2.59477 11.2659 2.5058 10.7741 2.5058 10.2731C2.5058 7.79718 4.69528 5.7829 7.38652 5.7829H16.7508C16.8435 5.7829 16.9375 5.78665 17.0302 5.79403C17.54 5.83439 18.0198 5.53269 18.1725 5.07625C18.3277 4.61197 18.6717 4.03198 19.4325 3.67939C19.467 3.81976 19.511 3.9431 19.552 4.05514C19.5525 4.05665 19.5531 4.05816 19.5536 4.05967C19.5566 4.06773 19.5596 4.07623 19.5625 4.08416C19.6518 4.32735 19.7163 4.50304 19.6664 4.75743C19.6238 4.97396 19.4249 5.22719 19.1064 5.4705C18.9129 5.61825 18.8018 5.83534 18.8013 6.0661C18.8009 6.29566 18.9105 6.51184 19.102 6.65916L20.1139 7.43739C20.9526 8.07387 21.9851 8.46045 23.0625 8.54782V9.81906L23.0198 9.88637C22.3678 10.9159 21.1581 11.5555 19.8629 11.5555C19.6472 11.5555 19.4594 11.691 19.4078 11.8836C19.1628 12.7983 18.5599 13.5921 17.71 14.1186C17.6779 14.1385 17.6497 14.1617 17.6249 14.1869C17.4317 14.2402 17.291 14.4048 17.291 14.5999L17.2911 17.8827C17.2911 18.0272 17.3696 18.1618 17.4999 18.2416C17.5538 18.2852 17.6433 18.4098 17.7428 18.5734H16.7353H16.0542C15.9275 17.9891 15.6511 16.8054 15.3173 15.9283C15.0259 15.1623 14.8781 14.3765 14.8781 13.5926V13.5712C14.8781 13.3331 14.6682 13.1399 14.4093 13.1399C14.1505 13.1399 13.9406 13.3331 13.9406 13.5712V13.5926C13.9406 13.9835 13.9733 14.3744 14.038 14.7633H7.29403C7.06125 14.7454 6.84703 14.8896 6.79748 15.1028C6.79702 15.1048 6.79641 15.1068 6.79594 15.1089C6.79547 15.1111 6.79472 15.1132 6.79425 15.1154L6.25931 17.805C6.22556 17.9747 6.30502 18.1462 6.4605 18.2415C6.51441 18.2851 6.60389 18.4097 6.70336 18.5733H6.66712H5.13445C5.02317 17.8582 4.74989 16.2624 4.33992 14.9001C4.27083 14.6705 4.01264 14.5361 3.76303 14.5995C3.51356 14.6631 3.36731 14.9006 3.43636 15.1302C3.95367 16.849 4.25733 19.0367 4.26033 19.0586C4.28991 19.2742 4.48922 19.4358 4.72538 19.4358H6.66712H7.45402H9.49364C9.75248 19.4358 9.96239 19.2427 9.96239 19.0046C9.96239 18.9673 9.95095 18.1712 9.05789 17.6553L9.42605 15.6258H12.3962C12.763 16.2271 13.2187 17.9405 13.4479 19.0829C13.489 19.2874 13.6829 19.4359 13.9089 19.4359H15.667H16.7354H18.4935C18.6508 19.4359 18.7977 19.3632 18.8845 19.2424C18.9713 19.1216 18.9864 18.9688 18.9247 18.8356C18.7763 18.5153 18.5131 18.0013 18.2286 17.6997L18.2285 14.8366C18.2302 14.8356 18.232 14.835 18.2336 14.8339C19.1782 14.2488 19.8744 13.3947 20.2209 12.405C21.7107 12.2968 23.0709 11.5189 23.8299 10.3205L23.9363 10.1525C23.9781 10.0866 24 10.0117 24 9.93541V8.13546C24 7.89745 23.7901 7.70438 23.5312 7.70438ZM21.0715 4.55975C21.1229 4.84808 21.16 5.05642 21.0508 5.33845C20.8913 5.75025 20.2714 6.07494 19.9661 6.19966L19.792 6.06576C20.1196 5.79955 20.4926 5.40025 20.5889 4.91104C20.6508 4.59593 20.6169 4.34257 20.5554 4.12116C20.6833 4.07321 20.8283 4.0375 21.005 4.00818C21.0105 4.21716 21.0429 4.39911 21.0715 4.55975ZM8.35256 18.2865C8.56087 18.3701 8.70473 18.4723 8.80397 18.5736H7.75791C7.61602 18.2947 7.4272 17.9674 7.22541 17.7396L7.64583 15.6259H8.47556L8.07755 17.8201C8.04216 18.0152 8.1555 18.2074 8.35256 18.2865ZM13.423 15.6259H14.2356C14.293 15.8228 14.3584 16.0188 14.4324 16.2134C14.7155 16.9572 14.9623 17.9717 15.0971 18.5736H14.2959C14.1452 17.8784 13.8226 16.5249 13.423 15.6259Z" fill="#2B2F31"/>
<path d="M8.15948 7.7138C8.24667 7.63359 8.29688 7.52276 8.29688 7.40934C8.29688 7.29549 8.24672 7.18466 8.15948 7.10402C8.07234 7.0238 7.95141 6.97766 7.82812 6.97766C7.70484 6.97766 7.58391 7.0238 7.49672 7.10402C7.40953 7.18466 7.35938 7.29549 7.35938 7.40934C7.35938 7.52276 7.40948 7.63359 7.49672 7.7138C7.58391 7.79445 7.70484 7.84016 7.82812 7.84016C7.95141 7.84016 8.07234 7.79445 8.15948 7.7138Z" fill="#2B2F31"/>
<path d="M14.8594 7.84041C15.1182 7.84041 15.3281 7.64733 15.3281 7.40916C15.3281 7.17098 15.1182 6.97791 14.8594 6.97791H9.70312C9.44428 6.97791 9.23438 7.17098 9.23438 7.40916C9.23438 7.64733 9.44428 7.84041 9.70312 7.84041H14.8594Z" fill="#2B2F31"/>
<path d="M3.69091 13.3912C3.69091 13.2778 3.64118 13.1665 3.55352 13.0864C3.46638 13.0061 3.34545 12.96 3.22217 12.96C3.09884 12.96 2.97795 13.0061 2.89076 13.0864C2.80357 13.1665 2.75342 13.2778 2.75342 13.3912C2.75342 13.5046 2.80353 13.6159 2.89076 13.6961C2.978 13.7763 3.09884 13.8225 3.22217 13.8225C3.34592 13.8225 3.46638 13.7764 3.55352 13.6961C3.64123 13.6159 3.69091 13.5046 3.69091 13.3912Z" fill="#2B2F31"/>
</g>
<defs>
<clipPath id="clip0">
<rect width="24" height="22.08" fill="white"/>
</clipPath>
</defs>
</svg>
