<svg width="75" height="75" viewBox="0 0 75 75" fill="none" xmlns="http://www.w3.org/2000/svg">
<g clip-path="url(#clip0)">
<path d="M48.224 51.3894V50.0835C48.5931 49.7854 48.948 49.459 49.2886 49.1183C52.0163 46.1148 53.7339 42.3321 54.2 38.3019C56.6514 37.9284 58.861 36.6147 60.3605 34.6396C62.4188 31.7297 62.6033 27.5423 60.8857 22.2902C60.7848 21.9874 60.5848 21.7272 60.3179 21.5521L59.5372 21.0269C59.6524 16.288 58.0147 11.6733 54.9381 8.06711C51.1197 3.7661 45.2573 1.59431 37.4928 1.56592C29.7425 1.56592 23.8659 3.7661 20.0475 8.01033C16.9709 11.6165 15.3332 16.2312 15.4484 20.9701L14.6677 21.4953C14.4008 21.6705 14.2008 21.9306 14.0999 22.2334C12.3823 27.5139 12.5668 31.6729 14.6251 34.5829C16.1189 36.5717 18.3285 37.9005 20.7856 38.2877C21.2537 42.3243 22.9766 46.1124 25.7112 49.1183C26.0492 49.4582 26.4044 49.7805 26.7758 50.0835V51.3894C21.3392 52.4398 -0.364565 57.5358 0.00449818 72.0144C0.00449818 72.7983 0.640068 73.4339 1.42397 73.4339H73.5758C74.3597 73.4339 74.9953 72.7983 74.9953 72.0144C75.3643 57.5358 53.6606 52.4398 48.224 51.3894ZM19.9339 35.1223C18.7277 34.7172 17.6764 33.9487 16.9246 32.9221L16.9956 32.9363C15.5761 30.8638 15.4484 27.7268 16.7117 23.582L17.7479 22.8864C18.1839 22.5954 18.4239 22.088 18.3725 21.5663C18.1337 17.3238 19.5136 13.1486 22.2335 9.88403C25.4415 6.25018 30.5942 4.43325 37.4928 4.40486C44.3914 4.37648 49.5441 6.25018 52.8089 9.88403C55.5288 13.1486 56.9087 17.3238 56.6699 21.5663C56.6184 22.088 56.8585 22.5954 57.2945 22.8864L58.3307 23.582C59.594 27.7126 59.5088 30.8638 58.0468 32.9363C57.2898 33.9638 56.2339 34.7323 55.0233 35.1365C56.7355 33.1882 57.5721 30.6222 57.337 28.0391C57.0711 26.485 56.2609 25.0763 55.0517 24.0646C54.4413 9.86984 44.4908 8.28003 40.204 8.28003C39.2966 8.27737 38.3903 8.3439 37.4928 8.47875C36.5955 8.34373 35.689 8.27737 34.7816 8.28003C30.5232 8.28003 20.5869 9.84145 19.9339 24.0646C18.7169 25.0681 17.8968 26.472 17.6202 28.0249C17.3835 30.6082 18.2202 33.1749 19.9339 35.1223ZM52.2269 23.4826C46.2706 23.8268 40.3516 22.3408 35.2642 19.2242C34.6884 18.8198 33.9033 18.8984 33.4189 19.4087C30.58 22.4606 25.3989 23.1703 22.9006 23.3264C23.6671 13.2908 29.7425 11.1048 34.8526 11.1048C35.6659 11.0989 36.4782 11.1655 37.2799 11.3035C37.4672 11.3418 37.6603 11.3418 37.8477 11.3035C38.6493 11.1658 39.4616 11.0993 40.275 11.1048C45.3425 11.1048 51.4462 13.3475 52.156 23.4684L52.2269 23.4826ZM23.3974 35.392L23.4542 35.4062C23.4572 35.0563 23.3309 34.7175 23.0993 34.4551C21.1547 32.2265 20.2604 30.1967 20.5017 28.5217C20.6174 27.5888 21.0782 26.733 21.7934 26.1228C23.6671 26.1228 30.3103 25.7679 34.5687 22.0915C39.3646 24.8487 44.793 26.3159 50.3248 26.3499C51.2759 26.3499 52.2411 26.3499 53.249 26.1938C53.9447 26.7878 54.3991 27.6157 54.5265 28.5217C54.7678 30.1683 53.8735 32.2265 51.9288 34.4551C51.6973 34.7175 51.571 35.0563 51.574 35.4062C51.574 35.4062 51.574 35.6901 51.574 36.1443L43.3126 40.573C41.6731 39.0209 39.0856 39.0916 37.5334 40.7311C35.9812 42.3706 36.052 44.9582 37.6915 46.5103C39.331 48.0625 41.9185 47.9917 43.4707 46.3523C44.1901 45.5925 44.5907 44.5859 44.5902 43.5397C44.5966 43.412 44.5966 43.2842 44.5902 43.1565L51.1055 39.6646C50.5463 42.4636 49.2306 45.0557 47.3014 47.1594C44.785 49.5821 41.3788 50.8562 37.8903 50.6797H37.1805C33.6994 50.8525 30.3007 49.5846 27.7836 47.1736C23.2981 42.7023 23.3974 35.4629 23.3974 35.392ZM41.7512 43.5397C41.7512 44.2374 41.1856 44.8031 40.4879 44.8031C39.7902 44.8031 39.2246 44.2374 39.2246 43.5397C39.2246 42.8421 39.7902 42.2764 40.4879 42.2764C41.1856 42.2764 41.7512 42.8421 41.7512 43.5397ZM36.0733 70.5097H2.88603C4.00741 59.8495 21.3392 55.3923 26.7616 54.2426V56.7834C26.7616 60.0056 30.6793 62.4613 36.0733 62.873V70.5097ZM29.6005 56.7834V56.7409V51.8862C31.96 52.9805 34.5375 53.5241 37.1379 53.4761H37.8477C40.4481 53.5241 43.0256 52.9805 45.3851 51.8862V56.7834C45.3851 58.1319 42.3048 60.0766 37.4928 60.0766C32.6808 60.0766 29.6005 58.1319 29.6005 56.7834ZM38.9123 70.5523V62.8588C44.3063 62.4897 48.224 60.0198 48.224 56.7692V54.2852C53.689 55.4207 70.9356 59.8779 72.0996 70.5523H38.9123Z" fill="#2B2F31"/>
</g>
<defs>
<clipPath id="clip0">
<rect width="75" height="75" fill="white"/>
</clipPath>
</defs>
</svg>
