<svg width="20" height="20" viewBox="0 0 20 20" fill="none" xmlns="http://www.w3.org/2000/svg">
<path d="M16.1006 18.9449C15.9443 18.9449 15.7892 18.8987 15.6561 18.8084L10.6273 15.3973L7.93012 17.338C7.71859 17.4901 7.44593 17.5284 7.20031 17.4406C6.95499 17.3526 6.76869 17.1494 6.70219 16.8974L5.3479 11.7651L0.508904 9.91479C0.204269 9.79826 0.0022351 9.50682 1.84203e-05 9.18065C-0.00219825 8.85449 0.195825 8.5603 0.498981 8.43965L18.8986 1.11829C18.9821 1.08283 19.0705 1.06235 19.1596 1.05686C19.1915 1.05496 19.2234 1.05496 19.2552 1.05675C19.4397 1.06773 19.621 1.14289 19.7624 1.28159C19.7771 1.29594 19.791 1.31061 19.8042 1.32592C19.9214 1.45977 19.9858 1.62295 19.9979 1.78921C20.0009 1.83101 20.0007 1.87333 19.997 1.91566C19.9944 1.94585 19.9901 1.97593 19.984 2.00581L16.8782 18.3014C16.8283 18.5632 16.6501 18.7823 16.4039 18.8844C16.3063 18.9249 16.2032 18.9449 16.1006 18.9449ZM11.0688 13.7835L15.5483 16.822L17.9649 4.14215L9.2368 12.5408L11.0477 13.7693C11.055 13.7738 11.062 13.7787 11.0688 13.7835ZM7.33985 13.1079L7.93962 15.3805L9.23184 14.4506L7.53977 13.3028C7.46113 13.2496 7.39379 13.1833 7.33985 13.1079ZM2.96994 9.16049L6.29263 10.4309C6.53066 10.5218 6.71031 10.722 6.77534 10.9683L7.19672 12.5653C7.21603 12.3811 7.29953 12.2078 7.43517 12.0772L15.7518 4.0746L2.96994 9.16049Z" fill="#2B2F31"/>
</svg>
