<svg width="17" height="19" viewBox="0 0 17 19" fill="none" xmlns="http://www.w3.org/2000/svg">
<path d="M15.0887 1.85547C15.8589 2.59766 16.3841 3.67383 16.7342 5.1582C17.0492 6.79102 17.0842 8.7207 16.8392 10.9844C16.6291 12.8027 15.964 14.1758 14.9137 15.1035C14.3186 15.623 13.5484 15.9941 12.6381 16.2168L12.4281 16.2539C12.078 16.4023 11.5179 16.5137 10.7477 16.5879C9.52236 16.7734 8.29706 16.8105 7.10676 16.6992C6.61664 17.293 6.26656 17.7012 6.0565 17.9238L5.77643 18.2578C5.49636 18.5547 5.32132 18.7773 5.21629 18.8516C5.00624 19 4.76118 19.0371 4.55113 18.9629C4.41109 18.9258 4.30607 18.8516 4.23605 18.7031C4.16603 18.5547 4.13103 18.4062 4.13103 18.2578V16.1055C2.8357 15.7344 1.85546 15.0293 1.15529 13.9531C0.630156 13.1367 0.28007 12.0605 0.140035 10.7617C0 10.0195 -0.0350087 9.05469 0.0350087 7.79297C0.0350087 6.49414 0.175043 5.38086 0.455113 4.45312C0.735182 3.45117 1.15529 2.63477 1.78544 1.9668C2.31057 1.44727 3.01075 1.03906 3.88596 0.705078C4.55113 0.482422 5.32132 0.296875 6.19654 0.148438C6.79169 0.0742188 7.42184 0 8.052 0H8.82219C10.5376 0.0371094 12.043 0.296875 13.3033 0.779297C14.0735 1.11328 14.6686 1.48438 15.0887 1.85547ZM15.5789 10.6504C15.7889 8.7207 15.7889 7.08789 15.5088 5.67773C15.2288 4.37891 14.7737 3.41406 14.1435 2.82031C13.7934 2.52344 13.3033 2.22656 12.6031 1.9668C11.4829 1.5957 10.2225 1.37305 8.75217 1.33594H8.08701C7.52687 1.33594 7.00174 1.37305 6.51162 1.44727C5.77643 1.55859 5.11127 1.70703 4.55113 1.89258C3.81595 2.18945 3.2208 2.52344 2.8007 2.96875C2.27556 3.48828 1.89047 4.19336 1.64541 5.04688C1.43536 5.82617 1.29532 6.75391 1.29532 7.83008V8.05273C1.26031 9.12891 1.29532 9.94531 1.36534 10.5391C1.50537 11.5781 1.78544 12.4688 2.20555 13.1367C2.76569 13.9902 3.57089 14.584 4.62115 14.8809L4.58614 18.0723C4.58614 18.2578 4.62115 18.3691 4.69116 18.4062C4.76118 18.4434 4.86621 18.4062 5.00624 18.2578C5.21629 18.0352 5.70642 17.4785 6.40659 16.5879L7.38683 15.3262C8.40209 15.4004 9.45235 15.3633 10.5026 15.2148C11.1678 15.1406 11.6579 15.0293 11.973 14.918L12.183 14.8809C12.9182 14.6953 13.5134 14.3984 14.0035 13.9902C14.8437 13.248 15.3688 12.1348 15.5789 10.6504ZM10.7127 7.64453C10.6426 6.56836 10.1175 6.01172 9.13727 5.9375C8.99723 5.9375 8.89221 6.04883 8.89221 6.19727C8.89221 6.3457 8.96222 6.41992 9.10226 6.41992C9.80243 6.49414 10.1875 6.90234 10.2575 7.68164C10.2575 7.83008 10.3276 7.9043 10.4676 7.9043C10.6076 7.9043 10.7127 7.83008 10.7127 7.64453ZM11.4128 8.05273C11.4128 8.23828 11.4829 8.3125 11.6229 8.3125C11.7629 8.3125 11.8679 8.23828 11.8679 8.08984C11.8679 7.16211 11.6229 6.38281 11.0627 5.71484C10.5026 5.08398 9.76742 4.71289 8.78718 4.63867C8.64715 4.63867 8.54212 4.75 8.54212 4.89844C8.54212 5.04688 8.61214 5.12109 8.75217 5.12109C9.59238 5.19531 10.2575 5.5293 10.7477 6.04883C11.2028 6.60547 11.4128 7.27344 11.4128 8.05273ZM13.0582 8.57227C13.0582 7.01367 12.6031 5.75195 11.6929 4.78711C10.8177 3.89648 9.73242 3.41406 8.40209 3.41406C8.22704 3.41406 8.15702 3.52539 8.15702 3.67383C8.15702 3.82227 8.22704 3.89648 8.40209 3.89648C9.59238 3.89648 10.5726 4.30469 11.3428 5.08398C12.183 5.97461 12.6031 7.125 12.6031 8.57227C12.6031 8.7207 12.6731 8.79492 12.8132 8.79492C12.9532 8.79492 13.0582 8.7207 13.0582 8.57227ZM12.6731 12.209C12.8132 11.875 12.7782 11.5781 12.5331 11.3184C12.113 10.9102 11.5529 10.502 10.9227 10.1309C10.7477 10.0195 10.5726 9.98242 10.3976 10.0195C10.2225 10.0566 10.0825 10.1309 10.0125 10.2422L9.6624 10.6875C9.59238 10.7988 9.48735 10.873 9.34732 10.873L9.17228 10.9102C8.61214 10.7617 8.15702 10.502 7.73692 10.1309C7.38683 9.87109 7.07175 9.53711 6.82669 9.0918C6.61664 8.79492 6.47661 8.49805 6.37158 8.16406L6.23155 7.75586V7.57031C6.23155 7.42188 6.30156 7.31055 6.40659 7.23633L6.82669 6.90234C6.93172 6.82812 7.00174 6.67969 7.03675 6.49414C7.07175 6.30859 7.03675 6.12305 6.96673 5.90039C6.75668 5.56641 6.58163 5.26953 6.4416 5.00977L5.81144 4.19336C5.56638 3.93359 5.28631 3.89648 4.97123 4.04492C4.55113 4.30469 4.23605 4.56445 4.026 4.86133C3.74593 5.26953 3.67591 5.64062 3.78094 5.97461L3.99099 6.45703C4.13103 6.93945 4.37609 7.49609 4.72617 8.08984C5.04125 8.68359 5.39134 9.24023 5.77643 9.75977C6.19654 10.3535 6.68666 10.873 7.2468 11.3184C7.77193 11.7637 8.43709 12.209 9.20728 12.6543C9.90746 13.0625 10.4326 13.3223 10.8527 13.4336C11.1678 13.582 11.5179 13.4707 11.903 13.1738C12.183 12.9512 12.4281 12.6543 12.6731 12.209Z" fill="#2B2F31"/>
</svg>
