<svg width="24" height="24" viewBox="0 0 24 24" fill="none" xmlns="http://www.w3.org/2000/svg">
<g clip-path="url(#clip0)">
<path d="M22.188 1.17517L20.9659 -0.046875L12.9223 7.99679L0.655273 20.2634L3.33192 22.5995L3.33137 22.5999L3.62452 22.856L3.62617 22.8566L4.57466 23.684C4.76033 23.8635 4.99452 23.9532 5.28218 23.9532C5.87306 23.9532 6.6899 23.5731 7.77828 22.8007C9.01278 21.9246 10.5097 20.5938 11.9934 19.0536C13.3736 17.6203 17.7643 12.8412 16.353 11.4635L15.3402 10.4403L15.1866 10.2847L15.186 10.2851L14.9344 10.0309C15.7229 9.85953 16.9607 9.46988 18.136 8.59884C18.2274 8.52157 20.3895 6.69234 21.6054 4.6487L21.6319 4.59505C21.6519 4.5511 21.8494 4.17024 22.6168 4.32258L22.7884 4.35664L22.9323 4.25831C22.9726 4.23121 23.3233 3.97596 23.3738 3.43452C23.4353 2.78303 23.036 2.02314 22.188 1.17517ZM15.7729 12.0573C15.8597 12.1412 15.8851 12.7229 14.8898 14.242C14.0863 15.4677 12.8456 16.9723 11.3955 18.4774C9.94662 19.9814 8.4913 21.2766 7.29744 22.1236C5.81923 23.1733 5.24007 23.1695 5.13569 23.0725L4.74165 22.7282C6.8395 21.9365 10.1198 18.5995 10.8552 17.8334C11.5732 17.0847 14.6979 13.7474 15.3856 11.6659L15.7663 12.0504L15.7729 12.0573ZM14.5957 10.8686L14.6942 10.9677C14.7191 11.7679 13.2229 14.1651 10.2557 17.2583C7.31411 20.3248 4.82057 22.0676 3.98927 22.0716L3.92408 22.0148L3.87794 21.9746L1.87055 20.2217L12.9184 9.17434L14.5957 10.8686ZM22.5234 3.46931C21.5435 3.36878 21.0324 3.90071 20.8779 4.24824C19.7311 6.1606 17.6237 7.94479 17.6221 7.9468C16.2579 8.95791 14.7464 9.24118 14.2335 9.31131L13.5077 8.58547L20.9659 1.12738L21.6008 1.7624C22.4495 2.61109 22.5595 3.10932 22.5496 3.3307C22.5471 3.38764 22.5363 3.43324 22.5234 3.46931Z" fill="black"/>
<path d="M16.2426 7.76459C16.2426 8.09601 15.9739 8.36463 15.6425 8.36463C15.3111 8.36463 15.0425 8.09601 15.0425 7.76459C15.0425 7.43317 15.3111 7.16455 15.6425 7.16455C15.9739 7.16455 16.2426 7.43317 16.2426 7.76459Z" fill="black"/>
<path d="M21.0414 2.96527C21.0414 3.2967 20.7728 3.5655 20.4413 3.5655C20.1099 3.5655 19.8413 3.2967 19.8413 2.96527C19.8413 2.63403 20.1099 2.36523 20.4413 2.36523C20.7728 2.36523 21.0414 2.63403 21.0414 2.96527Z" fill="black"/>
</g>
<defs>
<clipPath id="clip0">
<rect width="24" height="24" fill="white"/>
</clipPath>
</defs>
</svg>
