<svg width="24" height="24" viewBox="0 0 24 24" fill="none" xmlns="http://www.w3.org/2000/svg">
<g clip-path="url(#clip0)">
<path d="M21.5146 3.35866L20.7229 3.03433L21.1669 2.12505C21.2852 1.88299 21.2705 1.60211 21.1278 1.37364C20.9852 1.14517 20.7392 1.00881 20.4699 1.00881H20.1623L19.8916 0.441627C19.7655 0.177299 19.5052 0.00817389 19.2124 0.000252022C18.9206 -0.00710735 18.6507 0.147158 18.5104 0.404314L18.2799 0.826892L17.6283 0.441252C17.3891 0.299643 17.0905 0.297205 16.849 0.434924C16.6075 0.572642 16.4574 0.83083 16.4574 1.10885V1.4192C16.2101 1.46528 15.9978 1.6293 15.8923 1.86616C15.7638 2.15477 15.8217 2.48899 16.0398 2.71755L16.7294 3.43989C16.7235 3.45967 16.7174 3.47941 16.712 3.49947L16.2671 5.15191C15.981 6.21466 15.396 7.1642 14.5753 7.8978C14.3823 8.07034 14.3657 8.36669 14.5383 8.55967C14.7108 8.7527 15.0071 8.7693 15.2002 8.59675C16.1568 7.74151 16.8388 6.63461 17.1724 5.39561L17.6173 3.74322C17.7534 3.23777 18.2139 2.88475 18.7374 2.88475C19.1372 2.88475 19.5158 3.0963 19.7254 3.43689L19.772 3.51259C19.7138 3.59069 19.6793 3.68748 19.6793 3.79239V4.32419C19.6793 4.58317 19.4686 4.79392 19.2096 4.79392C19.0547 4.79392 18.9099 4.87037 18.8226 4.99816C18.7352 5.12594 18.7166 5.28864 18.7728 5.43287L19.0409 6.12067C19.7966 8.05914 20.1798 10.0969 20.1798 12.1775C20.1798 13.8676 19.26 15.4237 17.7792 16.2385C17.6823 16.2919 17.6073 16.3778 17.5676 16.4811L17.443 16.8055C16.8101 18.4524 15.1996 19.5589 13.4354 19.5589H11.9531C11.9439 19.5586 11.9346 19.558 11.9253 19.5582C10.454 19.5436 9.26143 18.3428 9.26143 16.8682C9.26143 16.6093 9.05153 16.3994 8.79268 16.3994H7.38503C6.41884 16.3994 5.63275 15.6133 5.63275 14.6471C5.63275 14.3882 5.42284 14.1784 5.164 14.1784C4.04256 14.1784 3.13018 13.2661 3.13018 12.1446V11.2683H6.06606C7.97621 11.2683 9.86687 10.9724 11.6856 10.3887C11.9321 10.3096 12.0678 10.0457 11.9887 9.79914C11.9096 9.55267 11.6458 9.41692 11.3992 9.49605C9.67318 10.05 7.87886 10.3308 6.06611 10.3308H2.66162C2.40278 10.3308 2.19287 10.5407 2.19287 10.7995V12.1447C2.19287 13.6359 3.29715 14.8742 4.73096 15.0845C4.9404 16.3605 6.05087 17.337 7.38521 17.337H8.35426C8.56979 18.9999 9.91576 20.313 11.5937 20.4785L12.2965 22.5733C11.8287 22.6418 11.4678 23.0447 11.4678 23.5313C11.4678 23.7902 11.6777 24.0001 11.9366 24.0001C12.1954 24.0001 12.4053 23.7902 12.4053 23.5313C12.4053 23.5137 12.4196 23.4994 12.4372 23.4994H12.9409C12.9421 23.4994 12.9432 23.4996 12.9444 23.4996C12.9455 23.4996 12.9467 23.4994 12.9478 23.4994H13.4252C13.4428 23.4994 13.4572 23.5137 13.4572 23.5313C13.4572 23.7902 13.6671 24.0001 13.9259 24.0001C14.1848 24.0001 14.3947 23.7902 14.3947 23.5313C14.3947 23.5206 14.3934 23.5101 14.3931 23.4994H14.5415C14.5427 23.4994 14.5438 23.4996 14.545 23.4996C14.5461 23.4996 14.5473 23.4994 14.5484 23.4994H15.0259C15.0435 23.4994 15.0578 23.5137 15.0578 23.5313C15.0578 23.7902 15.2677 24.0001 15.5266 24.0001C15.7854 24.0001 15.9953 23.7902 15.9953 23.5313C15.9953 22.9968 15.5604 22.5619 15.0259 22.5619H14.8821L14.1716 20.4443C14.9677 20.3319 15.7263 20.0381 16.3975 19.5771C17.2731 18.9755 17.9372 18.1335 18.3183 17.142L18.383 16.9734C20.0742 15.9728 21.1175 14.1512 21.1175 12.1776C21.1175 9.98008 20.7128 7.82772 19.9146 5.78026L19.8378 5.58334C20.2994 5.3522 20.6169 4.87459 20.6169 4.32423V4.26119H21.3369C21.5609 4.26119 21.7536 4.10275 21.7968 3.883C21.8401 3.6632 21.7218 3.44355 21.5146 3.35866ZM13.6728 22.5619C13.6372 22.5619 13.6025 22.5662 13.5692 22.5738C13.5221 22.5667 13.4742 22.5619 13.4252 22.5619H13.2815L12.5885 20.4964H13.2003L13.8933 22.5619H13.6728ZM18.7375 1.94725C18.1507 1.94725 17.6077 2.19278 17.221 2.59703L16.9213 2.28311C17.0086 2.24613 17.0892 2.19283 17.1595 2.12458C17.3113 1.9772 17.3949 1.77953 17.3949 1.56799V1.39249L17.9466 1.71897C18.1267 1.82556 18.3457 1.85481 18.5475 1.79931C18.7493 1.74377 18.9225 1.60656 19.0228 1.42281L19.1819 1.13106L19.3602 1.5047C19.4883 1.77292 19.7632 1.94627 20.0604 1.94627H20.211L20.002 2.37414C19.6419 2.10274 19.1977 1.94725 18.7375 1.94725Z" fill="#2B2F31"/>
<path d="M7.72853 12.5787C7.57628 12.5787 7.43355 12.6526 7.34571 12.7769C7.25786 12.9012 7.23583 13.0605 7.28669 13.204C7.81 14.681 9.17997 15.6924 10.733 15.7696C10.9391 16.5591 11.6584 17.1435 12.5116 17.1435C13.8885 17.1435 15.1358 16.3288 15.6892 15.068L15.7018 15.0393C15.896 14.5969 15.9944 14.1276 15.9944 13.6446V11.3938C15.9944 11.2332 15.9123 11.0839 15.7767 10.9979C15.6412 10.912 15.471 10.9013 15.3258 10.9698C13.0928 12.0223 10.6076 12.5787 8.13897 12.5787H7.72853V12.5787ZM15.0569 12.116V13.6446C15.0569 13.9972 14.9851 14.3397 14.8434 14.6626L14.8308 14.6913C14.4268 15.6115 13.5165 16.206 12.5115 16.206C12.015 16.206 11.6111 15.8021 11.6111 15.3057C11.6111 15.0468 11.4012 14.8369 11.1424 14.8369H10.9244C9.92519 14.8369 9.00986 14.3249 8.47839 13.5129C10.7284 13.469 12.9818 12.9898 15.0569 12.116Z" fill="#2B2F31"/>
<path d="M16.8757 14.5959C16.6488 14.7207 16.5661 15.0058 16.691 15.2326C16.7764 15.3878 16.9367 15.4755 17.1021 15.4755C17.1785 15.4755 17.256 15.4568 17.3277 15.4173C18.5048 14.7695 19.2387 13.5325 19.2427 12.189C19.2435 11.9301 19.0343 11.7195 18.7755 11.7188C18.5185 11.7183 18.306 11.9272 18.3052 12.186C18.3021 13.189 17.7543 14.1124 16.8757 14.5959Z" fill="#2B2F31"/>
<path d="M18.6066 9.84693C18.3495 9.87679 18.1652 10.1094 18.1951 10.3666C18.1953 10.3679 18.1959 10.3731 18.1961 10.3744L18.1973 10.3846C18.2262 10.6224 18.4284 10.7968 18.662 10.7968C18.6809 10.7968 18.7 10.7956 18.7193 10.7933C18.9762 10.762 19.1592 10.5283 19.1279 10.2713L19.1265 10.26L19.1264 10.2585C19.0964 10.0013 18.8639 9.81702 18.6066 9.84693Z" fill="#2B2F31"/>
<path d="M13.2998 9.73265C13.4231 9.73265 13.544 9.68249 13.6312 9.5953C13.7184 9.50765 13.7686 9.38718 13.7686 9.26343C13.7686 9.14015 13.7184 9.01968 13.6312 8.93202C13.544 8.84483 13.4231 8.79468 13.2998 8.79468C13.1765 8.79468 13.0556 8.84483 12.9684 8.93202C12.8812 9.01968 12.8311 9.14015 12.8311 9.26343C12.8311 9.38718 12.8812 9.50765 12.9684 9.5953C13.0556 9.68254 13.1765 9.73265 13.2998 9.73265Z" fill="#2B2F31"/>
</g>
<defs>
<clipPath id="clip0">
<rect width="24" height="24" fill="white"/>
</clipPath>
</defs>
</svg>
