<svg width="24" height="24" viewBox="0 0 24 24" fill="none" xmlns="http://www.w3.org/2000/svg">
<path d="M21.0572 7.84863H19.0176C18.8235 7.84863 18.666 8.0061 18.666 8.2002C18.666 8.39429 18.8235 8.55176 19.0176 8.55176H21.0572C21.2513 8.55176 21.4088 8.39429 21.4088 8.2002C21.4088 8.0061 21.2513 7.84863 21.0572 7.84863Z" fill="black"/>
<path d="M19.0176 5.70239H19.9435C20.1378 5.70239 20.2951 5.54492 20.2951 5.35083C20.2951 5.15656 20.1378 4.99927 19.9435 4.99927H19.0176C18.8235 4.99927 18.666 5.15656 18.666 5.35083C18.666 5.54492 18.8235 5.70239 19.0176 5.70239Z" fill="black"/>
<path d="M19.0176 2.85303H20.2719C20.4659 2.85303 20.6234 2.69574 20.6234 2.50146C20.6234 2.30737 20.4659 2.1499 20.2719 2.1499H19.0176C18.8235 2.1499 18.666 2.30737 18.666 2.50146C18.666 2.69574 18.8235 2.85303 19.0176 2.85303Z" fill="black"/>
<path d="M20.2719 13.5474H19.0176C18.8235 13.5474 18.666 13.7047 18.666 13.8989C18.666 14.093 18.8235 14.2505 19.0176 14.2505H20.2719C20.4659 14.2505 20.6234 14.093 20.6234 13.8989C20.6234 13.7047 20.4659 13.5474 20.2719 13.5474Z" fill="black"/>
<path d="M19.0176 11.4011H19.9435C20.1378 11.4011 20.2951 11.2438 20.2951 11.0496C20.2951 10.8555 20.1378 10.698 19.9435 10.698H19.0176C18.8235 10.698 18.666 10.8555 18.666 11.0496C18.666 11.2438 18.8235 11.4011 19.0176 11.4011Z" fill="black"/>
<path d="M8.5359 7.63171C9.11744 7.94226 9.15242 8.01257 9.30714 8.01257C9.66896 8.01257 9.79365 7.53027 9.47926 7.35413L8.87922 7.01831L9.32051 6.83759C9.50013 6.76398 9.58619 6.55853 9.51259 6.37891C9.43898 6.19928 9.23372 6.1134 9.05409 6.18683L8.09553 6.57941L6.83796 5.87518L8.09553 5.17096C9.08119 5.56537 9.06617 5.5899 9.18721 5.5899C9.57118 5.5899 9.67592 5.05853 9.32051 4.91296L8.87941 4.73224L9.47926 4.39624C9.64863 4.30157 9.70924 4.08716 9.61439 3.91779C9.51954 3.74841 9.30531 3.68799 9.13575 3.78284L8.5359 4.11865L8.61244 3.64807C8.64357 3.45654 8.51338 3.27582 8.32167 3.24469C8.13032 3.21356 7.94941 3.34357 7.91829 3.53528L7.75221 4.55756L6.46992 5.27551V3.80591L7.28071 3.16156C7.43269 3.04071 7.45796 2.8197 7.33729 2.66754C7.21644 2.51556 6.99525 2.4903 6.84327 2.61115L6.46992 2.90778V2.22021C6.46992 2.02612 6.31263 1.86865 6.11836 1.86865C5.92427 1.86865 5.7668 2.02612 5.7668 2.22021V2.90778L5.39363 2.61115C5.24165 2.4903 5.02046 2.51556 4.89961 2.66772C4.77876 2.8197 4.80403 3.04071 4.95619 3.16156L5.7668 3.80609V5.27551L4.48469 4.55756L4.31843 3.53528C4.2873 3.34357 4.10676 3.21356 3.91505 3.24469C3.72352 3.27582 3.59333 3.45654 3.62446 3.64807L3.701 4.11865L3.10096 3.78284C2.93159 3.68799 2.71736 3.74841 2.62251 3.91779C2.52766 4.08716 2.58809 4.30157 2.75746 4.39624L3.35749 4.73224L2.91621 4.91296C2.73658 4.98657 2.65071 5.19183 2.72413 5.37164C2.79792 5.55145 3.00337 5.63715 3.18281 5.56372L4.14119 5.17114L5.39875 5.87537L4.14119 6.57941L3.18281 6.18683C3.003 6.1134 2.79774 6.19928 2.72413 6.37909C2.65052 6.55872 2.73658 6.76398 2.91621 6.83759L3.35749 7.01831L2.75746 7.35431C2.44307 7.53027 2.56794 8.01257 2.92958 8.01257C3.0843 8.01257 3.11964 7.94208 3.701 7.63171L3.62446 8.10248C3.58967 8.31635 3.75483 8.51044 3.972 8.51044C4.14119 8.51044 4.29042 8.38776 4.31843 8.21527L4.48469 7.19299L5.7668 6.47504V7.94446L4.95619 8.58899C4.80403 8.70966 4.77876 8.93085 4.89961 9.08282C5.02046 9.23499 5.24165 9.26025 5.39363 9.1394L5.7668 8.84277V9.53033C5.7668 9.72443 5.92427 9.8819 6.11836 9.8819C6.31263 9.8819 6.46992 9.72443 6.46992 9.53033V8.84277C6.79457 9.07788 6.86451 9.21576 7.06172 9.21576C7.39314 9.21558 7.54127 8.7959 7.28071 8.58899L6.46992 7.94446V6.47504L7.75221 7.19299L7.91829 8.21527C7.9463 8.38776 8.09553 8.51044 8.2649 8.51044C8.48243 8.51044 8.64705 8.3158 8.61244 8.10248L8.5359 7.63171Z" fill="black"/>
<path d="M17.4912 14.5221V3.17999C17.4912 1.42657 16.0648 0 14.3114 0C12.558 0 11.1314 1.42657 11.1314 3.17999V14.5221C9.81781 15.5171 9.03906 17.0753 9.03906 18.7277C9.03906 21.6348 11.4042 24 14.3114 24C17.2186 24 19.5837 21.6348 19.5837 18.7277C19.5837 17.0753 18.805 15.5171 17.4912 14.5221ZM14.3114 23.2969C11.7919 23.2969 9.74219 21.2472 9.74219 18.7277C9.74219 17.2423 10.4686 15.8443 11.6853 14.9883C11.7789 14.9224 11.8345 14.8151 11.8345 14.7006V3.17999C11.8345 1.81421 12.9456 0.703125 14.3114 0.703125C15.677 0.703125 16.7881 1.81421 16.7881 3.17999V14.7006C16.7881 14.8151 16.8438 14.9224 16.9373 14.9883C18.1542 15.8445 18.8806 17.2423 18.8806 18.7277C18.8806 21.2472 16.8307 23.2969 14.3114 23.2969Z" fill="black"/>
<path d="M15.8503 15.2189V3.18011C15.8503 2.33142 15.16 1.64111 14.3115 1.64111C13.463 1.64111 12.7725 2.33142 12.7725 3.18011V4.26868C12.7725 4.46277 12.93 4.62024 13.1241 4.62024C13.3184 4.62024 13.4756 4.46277 13.4756 4.26868V3.18011C13.4756 2.71924 13.8506 2.34424 14.3115 2.34424C14.7724 2.34424 15.1472 2.71924 15.1472 3.18011V13.5983H13.4756V5.67822C13.4756 5.48395 13.3184 5.32666 13.1241 5.32666C12.93 5.32666 12.7725 5.48395 12.7725 5.67822V15.2189C11.4404 15.8193 10.5615 17.1635 10.5615 18.6384C10.5615 20.7062 12.2437 22.3884 14.3113 22.3884C16.3792 22.3884 18.0613 20.7062 18.0613 18.6384C18.0615 17.1635 17.1824 15.8193 15.8503 15.2189ZM14.3115 21.6853C12.6313 21.6853 11.2646 20.3186 11.2646 18.6384C11.2646 17.3728 12.0612 16.2255 13.2469 15.7838C13.3845 15.7325 13.4758 15.6011 13.4758 15.4544V14.3014H15.1472V15.4544C15.1472 15.6011 15.2386 15.7325 15.3761 15.7838C16.5619 16.2255 17.3584 17.3726 17.3584 18.6384C17.3584 20.3186 15.9915 21.6853 14.3115 21.6853Z" fill="black"/>
</svg>
