<svg width="70" height="71" viewBox="0 0 70 71" fill="none" xmlns="http://www.w3.org/2000/svg">
<path d="M59.0625 51.0273C57.5517 51.0273 56.3281 52.2509 56.3281 53.7617C56.3281 55.2726 57.5517 56.4961 59.0625 56.4961C60.5733 56.4961 61.7969 55.2726 61.7969 53.7617C61.7969 52.2509 60.5733 51.0273 59.0625 51.0273Z" fill="#2B2F31" fill-opacity="0.75"/>
<path d="M57.6953 40.0898C56.9407 40.0898 56.3281 40.7024 56.3281 41.457C56.3281 42.2117 56.9407 42.8242 57.6953 42.8242C58.4499 42.8242 59.0625 42.2117 59.0625 41.457C59.0625 40.7024 58.4499 40.0898 57.6953 40.0898Z" fill="#2B2F31" fill-opacity="0.75"/>
<path d="M17.2266 51.0273C15.7157 51.0273 14.4922 52.2509 14.4922 53.7617C14.4922 55.2726 15.7157 56.4961 17.2266 56.4961C18.7374 56.4961 19.9609 55.2726 19.9609 53.7617C19.9609 52.2509 18.7374 51.0273 17.2266 51.0273Z" fill="#2B2F31" fill-opacity="0.75"/>
<path d="M64.2535 34.7087L61.8962 25.2794C62.7341 24.4777 63.1641 23.4144 63.1641 22.3164C63.1641 20.0547 61.3242 18.2148 59.0625 18.2148H48.125V14.1133C48.125 11.8515 46.2852 10.0117 44.0234 10.0117H4.10156C1.83983 10.0117 0 11.8515 0 14.1133V49.6602C0 51.9219 1.83983 53.7617 4.10156 53.7617H9.02344C9.02344 58.2852 12.7031 61.9648 17.2266 61.9648C21.75 61.9648 25.4297 58.2852 25.4297 53.7617H50.8594C50.8594 58.2852 54.539 61.9648 59.0625 61.9648C63.586 61.9648 67.2656 58.2852 67.2656 53.7617C67.2656 53.6837 67.2619 53.6063 67.2598 53.5283C68.8539 52.966 70 51.4444 70 49.6602V41.457C70 38.0583 67.507 35.2321 64.2535 34.7087ZM59.3621 26.418L61.4129 34.6211H50.0583L53.1932 31.4862C53.7273 30.9521 53.7273 30.0869 53.1932 29.5529C52.6591 29.0188 51.794 29.0188 51.2599 29.5529L48.125 32.6873V26.418H59.3621ZM60.4297 22.3164C60.4297 23.071 59.8171 23.6836 59.0625 23.6836H48.125V20.9492H59.0625C59.8166 20.9492 60.4297 21.5623 60.4297 22.3164ZM17.2266 59.2305C14.2113 59.2305 11.7578 56.777 11.7578 53.7617C11.7578 50.7053 14.2556 48.293 17.2266 48.293C20.2045 48.293 22.6953 50.7117 22.6953 53.7617C22.6953 56.777 20.2419 59.2305 17.2266 59.2305ZM24.9603 51.0273C23.8184 47.8011 20.7278 45.5586 17.2266 45.5586C13.7237 45.5586 10.632 47.8027 9.49234 51.0273H4.10156C3.34747 51.0273 2.73438 50.4142 2.73438 49.6602V14.1133C2.73438 13.3592 3.34747 12.7461 4.10156 12.7461H44.0234C44.7775 12.7461 45.3906 13.3592 45.3906 14.1133V51.0273H24.9603ZM59.0625 59.2305C56.0472 59.2305 53.5938 56.777 53.5938 53.7617C53.5938 50.7053 56.0915 48.293 59.0625 48.293C62.0404 48.293 64.5312 50.7117 64.5312 53.7617C64.5312 56.777 62.0778 59.2305 59.0625 59.2305ZM66.699 50.7662C65.4861 47.6804 62.4687 45.5586 59.0625 45.5586C55.5596 45.5586 52.468 47.8027 51.3283 51.0273H48.125V37.3555H63.1641C64.9462 37.3555 66.4661 38.4984 67.0306 40.0898H63.1641C62.4089 40.0898 61.7969 40.7019 61.7969 41.457C61.7969 42.2122 62.4089 42.8242 63.1641 42.8242H67.2656V49.6602C67.2656 50.1146 67.0413 50.5173 66.699 50.7662Z" fill="#2B2F31" fill-opacity="0.75"/>
<path d="M24.0625 18.2148C17.2778 18.2148 11.7578 23.7349 11.7578 30.5195C11.7578 37.3042 17.2778 42.8242 24.0625 42.8242C30.8472 42.8242 36.3672 37.3042 36.3672 30.5195C36.3672 23.7349 30.8472 18.2148 24.0625 18.2148ZM24.0625 40.0898C18.7855 40.0898 14.4922 35.7966 14.4922 30.5195C14.4922 25.2425 18.7855 20.9492 24.0625 20.9492C29.3395 20.9492 33.6328 25.2425 33.6328 30.5195C33.6328 35.7966 29.3395 40.0898 24.0625 40.0898Z" fill="#2B2F31" fill-opacity="0.75"/>
<path d="M29.5312 29.1523H25.4297V25.0508C25.4297 24.2956 24.8177 23.6836 24.0625 23.6836C23.3073 23.6836 22.6953 24.2956 22.6953 25.0508V30.5195C22.6953 31.2747 23.3073 31.8867 24.0625 31.8867H29.5312C30.2864 31.8867 30.8984 31.2747 30.8984 30.5195C30.8984 29.7644 30.2864 29.1523 29.5312 29.1523Z" fill="#2B2F31" fill-opacity="0.75"/>
</svg>
