<svg width="70" height="71" viewBox="0 0 70 71" fill="none" xmlns="http://www.w3.org/2000/svg">
<g clip-path="url(#clip0)">
<path d="M52.3392 31.8648C51.6928 30.2505 50.3761 29.0097 48.7262 28.4608L41.3325 26.001C40.6896 25.787 40.2575 25.188 40.2575 24.5102V23.6233L41.9069 22.6888C41.934 22.6735 41.9605 22.6572 41.9865 22.6402C43.2667 21.7947 44.1051 20.3206 44.2292 18.6968C44.2319 18.6621 44.2332 18.6272 44.2332 18.5925V18.0758C45.2547 17.5702 45.9588 16.5167 45.9588 15.3019V12.5436C45.9588 11.3287 45.2547 10.2752 44.2332 9.76973V7.73029C44.2337 4.01277 41.2092 0.988281 37.4917 0.988281H32.5642C28.8467 0.988281 25.8222 4.01277 25.8222 7.73029V9.76904C24.7972 10.275 24.0905 11.3313 24.0905 12.5496V15.2958C24.0905 16.5141 24.7972 17.5706 25.8222 18.0765V18.5925C25.8222 18.6272 25.8236 18.6621 25.8262 18.6968C25.95 20.3173 26.7911 21.7917 28.0762 22.6402C28.0975 22.6544 28.1192 22.6678 28.1414 22.6808L29.7411 23.6124V24.5102C29.7411 25.1879 29.3091 25.787 28.6661 26.001L21.2723 28.4608C19.5072 29.0482 18.108 30.4545 17.5295 32.2226C17.2948 32.9401 17.6864 33.7123 18.4039 33.9469C18.5451 33.9931 18.6884 34.0152 18.8292 34.0152C19.4044 34.015 19.9396 33.649 20.1282 33.0728C20.4385 32.1243 21.189 31.3701 22.1357 31.0549L29.5293 28.5951C31.2914 28.009 32.4752 26.3672 32.4752 24.5102V22.8266C32.4752 22.3401 32.2165 21.8903 31.7963 21.6453L29.5552 20.34C29.0053 19.9627 28.6262 19.2776 28.5562 18.5349V17.0274C28.5562 16.2726 27.9442 15.6604 27.1891 15.6604C26.9914 15.6604 26.8244 15.4932 26.8244 15.2955V12.5496C26.8244 12.3519 26.9914 12.1849 27.1891 12.1849C27.9441 12.1849 28.5562 11.5728 28.5562 10.8178V7.73029C28.5563 5.52023 30.3542 3.72238 32.5642 3.72238H37.4916C39.7016 3.72238 41.4995 5.52023 41.4995 7.73029V10.8179C41.4995 11.5728 42.1114 12.185 42.8665 12.185C43.0609 12.185 43.2253 12.3492 43.2253 12.5437V15.3021C43.2253 15.4965 43.0609 15.6608 42.8665 15.6608C42.1116 15.6608 41.4995 16.2729 41.4995 17.0279V18.5353C41.4298 19.2784 41.0558 19.9613 40.5136 20.3364L38.217 21.6377C37.7885 21.8804 37.5238 22.3347 37.5238 22.8271V24.5106C37.5238 26.3677 38.7077 28.0094 40.4697 28.5955L47.8632 31.0553C48.748 31.3498 49.4543 32.0154 49.8012 32.8813C50.0819 33.5823 50.8776 33.923 51.5782 33.6422C52.2792 33.3614 52.6199 32.5658 52.3392 31.8648Z" fill="#2B2F31" fill-opacity="0.75"/>
<path d="M62.2331 61.3611C61.7028 60.8242 60.8371 60.819 60.3001 61.3498L60.2887 61.361C59.7487 61.8883 59.7386 62.7539 60.2659 63.2941C60.5337 63.5683 60.8886 63.706 61.2438 63.706C61.5884 63.706 61.933 63.5767 62.199 63.3168L62.2218 63.2945C62.7587 62.7637 62.7637 61.8983 62.2331 61.3611Z" fill="#2B2F31" fill-opacity="0.75"/>
<path d="M69.7964 36.0474C69.7841 35.7167 69.6522 35.3895 69.4006 35.1356C69.1657 34.8986 68.8653 34.7657 68.5568 34.7372C67.9105 34.6754 53.7505 33.4236 44.0565 40.6362C43.9337 40.7027 43.8227 40.7879 43.7262 40.8871C43.0452 41.4131 42.3869 41.9814 41.7595 42.5973C38.637 45.6643 36.3386 49.9333 35.0001 55.1008C33.6615 49.9333 31.3633 45.6643 28.2405 42.5971C18.8956 33.4228 2.89596 34.609 1.51838 34.7305C1.17877 34.7437 0.843671 34.8828 0.588554 35.1464C0.347519 35.3954 0.22037 35.7129 0.205741 36.0339C0.0170696 37.7933 -1.11332 50.6736 4.99664 59.901C5.4135 60.5305 6.2617 60.703 6.89115 60.2861C7.5206 59.8693 7.69301 59.0211 7.27629 58.3918C6.84439 57.7396 6.45474 57.0641 6.10064 56.3746H19.9092L31.7566 68.2315C27.5118 68.3197 19.4932 67.8932 13.2071 64.0649C12.5624 63.6724 11.7212 63.8765 11.3285 64.5216C10.9357 65.1663 11.1402 66.0074 11.7851 66.4001C18.1778 70.2931 25.9614 70.9888 30.708 70.9886C33.0945 70.9886 34.713 70.8127 35.0007 70.779C35.2882 70.8127 36.906 70.9886 39.2934 70.9886C44.04 70.9886 51.824 70.2929 58.2162 66.4001C58.861 66.0073 59.0654 65.1663 58.6728 64.5216C58.28 63.8769 57.4391 63.6724 56.7943 64.0649C50.5219 67.8847 42.4963 68.3145 38.2472 68.2291L50.092 56.3746H63.9006C63.5464 57.0641 63.1568 57.7396 62.7249 58.3918C62.308 59.0211 62.4804 59.8696 63.11 60.2861C63.7395 60.7029 64.5877 60.5306 65.0045 59.9011C71.0884 50.7123 69.9931 37.9017 69.7964 36.0474ZM10.8637 37.7866C11.4954 37.8759 12.163 37.9861 12.8548 38.1198V45.4461L4.76654 37.3513C6.37559 37.3577 8.50183 37.4537 10.8637 37.7866ZM4.9023 53.6405C3.66773 50.3143 3.12975 46.9078 2.90498 44.2689C2.73818 42.3094 2.7185 40.5669 2.75144 39.2029L17.1773 53.6405H4.9023ZM23.9275 56.528L21.4424 54.0408L15.5888 48.1824V38.7561C18.3642 39.5187 21.3162 40.7079 23.9275 42.5547V56.528ZM26.6559 59.2584C26.6589 59.2212 26.6616 59.1839 26.6616 59.1459V44.8893C30.8761 49.259 32.5267 55.4183 33.1669 59.8712C33.5214 62.3376 33.6164 64.562 33.6178 66.226L26.6559 59.2584ZM36.3832 66.226C36.3845 64.5622 36.4795 62.3376 36.8341 59.8712C37.4739 55.4183 39.1248 49.2587 43.3393 44.8893V59.1459C43.3393 59.1839 43.3419 59.2212 43.345 59.2584L36.3832 66.226ZM57.146 38.1198C57.8373 37.9861 58.5048 37.876 59.1364 37.7869C61.4983 37.4536 63.6245 37.3576 65.2342 37.3512L57.146 45.446V38.1198ZM48.5584 54.0408L46.0732 56.528V42.5548C48.6847 40.708 51.6366 39.5188 54.412 38.7562V48.1826L48.5584 54.0408ZM67.0957 44.2689C66.8709 46.9078 66.3329 50.3141 65.0983 53.6405H52.8233L67.2491 39.2029C67.2822 40.5669 67.2626 42.3093 67.0957 44.2689Z" fill="#2B2F31" fill-opacity="0.75"/>
<path d="M9.71627 61.3666L9.69331 61.3442C9.15327 60.8166 8.2877 60.8268 7.76024 61.3669C7.23264 61.9071 7.24276 62.7725 7.78307 63.3L7.79442 63.3113C8.06088 63.5746 8.40801 63.706 8.75528 63.706C9.10788 63.706 9.4602 63.5705 9.72762 63.2998C10.2582 62.7628 10.2532 61.8974 9.71627 61.3666Z" fill="#2B2F31" fill-opacity="0.75"/>
<path d="M35.854 28.6337C35.3527 28.2326 34.6386 28.2356 34.1394 28.6394C33.6447 29.0394 29.3053 32.6851 29.2591 37.4522C29.213 42.3535 33.9457 46.1893 34.1472 46.35C34.3967 46.5492 34.6983 46.6489 35.0002 46.6489C35.3021 46.6489 35.6038 46.5492 35.8533 46.3499C36.051 46.192 40.6954 42.4262 40.7412 37.5302C40.7874 32.6363 36.0554 28.7948 35.854 28.6337ZM36.3671 41.8076V35.9769C36.3671 35.2221 35.7552 34.6099 35.0001 34.6099C34.2451 34.6099 33.633 35.2219 33.633 35.9769V41.8067C32.7656 40.6109 31.9778 39.081 31.9928 37.4782C32.0169 34.9887 33.8641 32.7256 34.9997 31.568C36.144 32.735 38.0305 35.0367 38.0072 37.5046C37.9923 39.1164 37.2183 40.6282 36.3671 41.8076Z" fill="#2B2F31" fill-opacity="0.75"/>
</g>
<defs>
<clipPath id="clip0">
<rect width="70" height="70" fill="white" transform="translate(0 0.988281)"/>
</clipPath>
</defs>
</svg>
