<svg width="70" height="71" viewBox="0 0 70 71" fill="none" xmlns="http://www.w3.org/2000/svg">
<path d="M49.1519 3.44922C43.8323 3.44922 38.8593 5.47512 35 9.18457C31.1407 5.47512 26.1677 3.44922 20.8481 3.44922C9.35238 3.44922 0 13.1355 0 25.0415C0 29.9563 1.84119 35.3117 5.4723 40.9592C8.32111 45.3897 12.281 50.0245 17.2423 54.7343C25.6456 62.712 34.1726 68.2534 34.2578 68.3083C34.4836 68.4542 34.7417 68.5273 35 68.5273C35.2583 68.5273 35.5162 68.4543 35.7422 68.3083C35.8274 68.2534 44.3544 62.7119 52.7577 54.7343C57.719 50.0245 61.6789 45.3897 64.5277 40.9592C68.1588 35.3118 70 29.9563 70 25.0415C70 13.1355 60.6476 3.44922 49.1519 3.44922ZM50.9054 52.7224C44.1077 59.181 37.2258 64.0085 35 65.5167C32.7742 64.0085 25.8923 59.1808 19.0945 52.7224C11.6311 45.6313 2.73438 35.073 2.73438 25.0415C2.73438 14.6431 10.8603 6.18359 20.8481 6.18359C25.866 6.18359 30.5331 8.27211 33.9895 12.0644C34.2486 12.3487 34.6153 12.5107 35 12.5107C35.3847 12.5107 35.7514 12.3487 36.0105 12.0644C39.4669 8.27211 44.134 6.18359 49.1519 6.18359C59.1397 6.18359 67.2656 14.6431 67.2656 25.0415C67.2656 35.073 58.3689 45.6313 50.9054 52.7224Z" fill="#2B2F31" fill-opacity="0.75"/>
<path d="M59.2991 21.3059L59.2941 21.288C59.1826 20.838 58.8475 20.4689 58.3978 20.3198C58.2766 20.2796 55.3825 19.338 51.2766 19.6259C47.5008 19.8908 41.9202 21.2858 36.7774 26.4287C32.8288 30.3774 31.0908 34.583 30.3762 38.0327L21.2837 28.9403C20.7497 28.4064 19.8843 28.4064 19.3501 28.9403C18.8162 29.4742 18.8162 30.3399 19.3501 30.8738L29.5282 41.0517C29.6534 41.1768 29.7971 41.2714 29.9501 41.338C29.7498 45.2251 30.63 47.9313 30.6688 48.0484C30.8048 48.458 31.1261 48.7793 31.5357 48.9154C31.641 48.9502 33.8341 49.6641 37.0954 49.6641C37.5922 49.6641 38.1138 49.6474 38.6567 49.6094C42.4324 49.3447 48.0128 47.9496 53.1556 42.8069C62.2589 33.7039 59.8703 23.2993 59.2991 21.3059ZM51.2223 40.8733C47.6039 44.4917 43.351 46.5104 38.5814 46.8732C37.083 46.9871 35.7657 46.9111 34.7345 46.7834L49.1503 32.368C49.6842 31.8341 49.6842 30.9684 49.1503 30.4345C48.6164 29.9006 47.7507 29.9006 47.2167 30.4345L32.8013 44.8495C32.3745 41.3536 32.5576 34.5157 38.711 28.3623C42.3294 24.7439 46.5824 22.7251 51.3522 22.3622C53.8459 22.1721 55.8443 22.5083 56.8426 22.7344C57.4681 25.4856 58.4889 33.6068 51.2223 40.8733Z" fill="#2B2F31" fill-opacity="0.75"/>
<path d="M33.2185 26.4286L33.1986 26.4088C32.6609 25.8809 31.7995 25.8893 31.2697 26.4256C30.7402 26.962 30.7467 27.8275 31.2815 28.3585L31.2851 28.3621C31.5521 28.6291 31.9019 28.7625 32.2518 28.7625C32.6017 28.7625 32.9515 28.629 33.2185 28.3621C33.7524 27.8282 33.7524 26.9626 33.2185 26.4286Z" fill="#2B2F31" fill-opacity="0.75"/>
<path d="M29.3449 23.2475C20.568 17.4434 11.9613 20.1996 11.5991 20.3196C11.1494 20.4689 10.8143 20.8379 10.7028 21.288L10.6977 21.3057C10.1264 23.2989 7.73788 33.7034 16.8412 42.8066C19.3608 45.326 22.2134 47.1821 25.3198 48.3234C25.4754 48.3806 25.6345 48.4077 25.791 48.4077C26.3479 48.4077 26.8713 48.0648 27.0746 47.5115C27.3349 46.8033 26.9713 46.0175 26.2626 45.7571C23.5311 44.7536 21.0118 43.1105 18.7746 40.8734C11.5099 33.6088 12.5282 25.4901 13.1537 22.7365C15.2172 22.2755 21.539 21.3638 27.8368 25.5283C28.4665 25.9448 29.315 25.772 29.7311 25.142C30.1477 24.5121 29.9748 23.6638 29.3449 23.2475Z" fill="#2B2F31" fill-opacity="0.75"/>
</svg>
