<svg width="24" height="24" viewBox="0 0 24 24" fill="none" xmlns="http://www.w3.org/2000/svg">
<g clip-path="url(#clip0)">
<path d="M23.0302 0H15.6765C15.141 0 14.707 0.434062 14.707 0.969469C14.707 1.50487 15.141 1.93894 15.6765 1.93894H22.0607V8.32317C22.0607 8.85858 22.4947 9.29264 23.0302 9.29264C23.5657 9.29264 23.9997 8.85858 23.9997 8.32317V0.969469C23.9997 0.434062 23.5657 0 23.0302 0Z" fill="#2B2F31"/>
<path d="M8.32317 22.0612H1.93898V15.677C1.93898 15.1415 1.50492 14.7075 0.969516 14.7075C0.434063 14.7075 0 15.1415 0 15.677V23.0307C0 23.5661 0.434062 24.0002 0.969469 24.0002H8.32317C8.85858 24.0002 9.29264 23.5661 9.29264 23.0307C9.29269 22.4952 8.85858 22.0612 8.32317 22.0612Z" fill="#2B2F31"/>
<path d="M23.7157 0.283713C23.3371 -0.0948965 22.7233 -0.0948965 22.3447 0.283713L13.7654 8.86301C13.3868 9.24162 13.3868 9.85545 13.7654 10.2341C13.9546 10.4233 14.2028 10.518 14.4509 10.518C14.699 10.518 14.9471 10.4234 15.1365 10.2341L23.7157 1.65476C24.0943 1.27615 24.0943 0.662322 23.7157 0.283713Z" fill="#2B2F31"/>
<path d="M10.2343 13.7656C9.85574 13.387 9.24186 13.387 8.86325 13.7656L0.283957 22.3449C-0.0946523 22.7235 -0.0946523 23.3373 0.283957 23.716C0.473238 23.9053 0.721394 23.9999 0.969457 23.9999C1.21757 23.9999 1.46568 23.9053 1.655 23.716L10.2343 15.1366C10.6129 14.7581 10.6129 14.1443 10.2343 13.7656Z" fill="#2B2F31"/>
</g>
<defs>
<clipPath id="clip0">
<rect width="24" height="24" fill="white"/>
</clipPath>
</defs>
</svg>
