<svg width="24" height="24" viewBox="0 0 24 24" fill="none" xmlns="http://www.w3.org/2000/svg">
<g clip-path="url(#clip0)">
<path d="M18.8255 9.56188C18.9127 9.47469 18.9629 9.35375 18.9629 9.23047C18.9629 9.10719 18.9128 8.98625 18.8255 8.89906C18.7379 8.81188 18.6175 8.76172 18.4942 8.76172C18.3704 8.76172 18.2499 8.81188 18.1623 8.89906C18.0751 8.98625 18.0249 9.10719 18.0249 9.23047C18.0249 9.35375 18.0751 9.47469 18.1623 9.56188C18.2494 9.64906 18.3704 9.69922 18.4942 9.69922C18.6174 9.69922 18.7378 9.64906 18.8255 9.56188Z" fill="#2B2F31"/>
<path d="M23.5312 8.37428C22.519 8.37428 21.5315 8.02398 20.7471 7.38995C21.1672 7.1447 21.7179 6.72367 21.9339 6.1172C22.1243 5.58301 22.0565 5.16943 21.9967 4.80456C21.9487 4.51159 21.9072 4.2586 21.9832 3.91449C22.0156 3.76707 21.9752 3.61299 21.8744 3.50059C21.7737 3.38818 21.6248 3.33109 21.4748 3.34749C21.0331 3.39545 20.6567 3.44589 20.3131 3.5672C20.3084 3.50453 20.307 3.43885 20.3108 3.36784C20.319 3.21709 20.254 3.07164 20.1363 2.97709C20.0186 2.88254 19.8625 2.85043 19.7171 2.89098C18.083 3.34571 17.4866 4.55912 17.2765 5.24195C17.2528 5.31887 17.1831 5.3701 17.1112 5.36382C16.9916 5.35346 16.8704 5.34821 16.7509 5.34821H7.38647C5.20158 5.34821 3.29452 6.55899 2.29997 8.34456C1.89989 8.40278 1.49752 8.27087 1.2097 7.98348C1.0342 7.80817 0.9375 7.5752 0.9375 7.32737C0.9375 7.07954 1.0342 6.84662 1.20975 6.67131C1.46344 6.41795 1.87627 6.41795 2.12995 6.67131C2.31323 6.85426 2.60995 6.85403 2.79291 6.67084C2.97581 6.48765 2.97558 6.19084 2.79244 6.00793C2.17341 5.38979 1.1663 5.38979 0.547312 6.00793C0.194344 6.36039 0 6.82899 0 7.32746C0 7.82593 0.194344 8.29454 0.547266 8.6469C0.912188 9.01131 1.38338 9.23115 1.88119 9.28337C1.67855 9.87428 1.5683 10.5077 1.5683 11.1664C1.5683 11.8149 1.67442 12.4521 1.88362 13.0602C1.96791 13.305 2.23467 13.4349 2.47941 13.3509C2.72419 13.2667 2.85436 12.9999 2.77012 12.7551C2.59477 12.2454 2.5058 11.7109 2.5058 11.1664C2.5058 8.47515 4.69528 6.28571 7.38652 6.28571H16.7508C16.8435 6.28571 16.9375 6.28979 17.0302 6.29781C17.54 6.34168 18.0198 6.01374 18.1725 5.51762C18.3277 5.01296 18.6717 4.38254 19.4325 3.99929C19.467 4.15187 19.511 4.28593 19.552 4.40771C19.5525 4.40935 19.5531 4.41099 19.5536 4.41264C19.5566 4.4214 19.5596 4.43064 19.5625 4.43926C19.6518 4.70359 19.7163 4.89456 19.6664 5.17107C19.6238 5.40643 19.4249 5.68168 19.1064 5.94615C18.9129 6.10674 18.8018 6.34271 18.8013 6.59354C18.8009 6.84306 18.9105 7.07804 19.102 7.23817L20.1139 8.08407C20.9526 8.7759 21.9851 9.19609 23.0625 9.29106V10.6728L23.0198 10.746C22.3678 11.8651 21.1581 12.5603 19.8629 12.5603C19.6472 12.5603 19.4594 12.7075 19.4078 12.9169C19.1628 13.9112 18.5599 14.7739 17.71 15.3462C17.6779 15.3678 17.6497 15.3931 17.6249 15.4205C17.4317 15.4785 17.291 15.6574 17.291 15.8694L17.2911 19.4377C17.2911 19.5947 17.3696 19.741 17.4999 19.8278C17.5538 19.8752 17.6433 20.0106 17.7428 20.1885H16.7353H16.0542C15.9275 19.5534 15.6511 18.2667 15.3173 17.3133C15.0259 16.4807 14.8781 15.6265 14.8781 14.7745V14.7512C14.8781 14.4924 14.6682 14.2825 14.4093 14.2825C14.1505 14.2825 13.9406 14.4924 13.9406 14.7512V14.7745C13.9406 15.1994 13.9733 15.6243 14.038 16.047H7.29403C7.06125 16.0275 6.84703 16.1843 6.79748 16.4161C6.79702 16.4183 6.79641 16.4204 6.79594 16.4226C6.79547 16.425 6.79472 16.4273 6.79425 16.4297L6.25931 19.3532C6.22556 19.5377 6.30502 19.7241 6.4605 19.8277C6.51441 19.8751 6.60389 20.0105 6.70336 20.1884H6.66712H5.13445C5.02317 19.411 4.74989 17.6765 4.33992 16.1957C4.27083 15.9461 4.01264 15.8001 3.76303 15.869C3.51356 15.9381 3.36731 16.1963 3.43636 16.4458C3.95367 18.3141 4.25733 20.692 4.26033 20.7159C4.28991 20.9501 4.48922 21.1259 4.72538 21.1259H6.66712H7.45402H9.49364C9.75248 21.1259 9.96239 20.916 9.96239 20.6571C9.96239 20.6166 9.95095 19.7512 9.05789 19.1905L9.42605 16.9845H12.3962C12.763 17.6381 13.2187 19.5005 13.4479 20.7422C13.489 20.9645 13.6829 21.1259 13.9089 21.1259H15.667H16.7354H18.4935C18.6508 21.1259 18.7977 21.0469 18.8845 20.9156C18.9713 20.7843 18.9864 20.6182 18.9247 20.4734C18.7763 20.1252 18.5131 19.5666 18.2286 19.2387L18.2285 16.1267C18.2302 16.1256 18.232 16.1249 18.2336 16.1238C19.1782 15.4878 19.8744 14.5594 20.2209 13.4836C21.7107 13.366 23.0709 12.5205 23.8299 11.2179L23.9363 11.0353C23.9781 10.9637 24 10.8822 24 10.7993V8.84284C24 8.58414 23.7901 8.37428 23.5312 8.37428ZM21.0715 4.9562C21.1229 5.2696 21.16 5.49606 21.0508 5.80262C20.8913 6.25023 20.2714 6.60315 19.9661 6.73871L19.792 6.59317C20.1196 6.30381 20.4926 5.86979 20.5889 5.33804C20.6508 4.99553 20.6169 4.72014 20.5554 4.47948C20.6833 4.42735 20.8283 4.38854 21.005 4.35667C21.0105 4.58382 21.0429 4.78159 21.0715 4.9562ZM8.35256 19.8766C8.56087 19.9674 8.70473 20.0785 8.80397 20.1886H7.75791C7.61602 19.8855 7.4272 19.5298 7.22541 19.2821L7.64583 16.9847H8.47556L8.07755 19.3697C8.04216 19.5817 8.1555 19.7906 8.35256 19.8766ZM13.423 16.9847H14.2356C14.293 17.1986 14.3584 17.4116 14.4324 17.6232C14.7155 18.4317 14.9623 19.5344 15.0971 20.1886H14.2959C14.1452 19.433 13.8226 17.9618 13.423 16.9847Z" fill="#2B2F31"/>
<path d="M8.15948 8.38438C8.24667 8.2972 8.29688 8.17673 8.29688 8.05345C8.29688 7.9297 8.24672 7.80923 8.15948 7.72157C8.07234 7.63438 7.95141 7.58423 7.82812 7.58423C7.70484 7.58423 7.58391 7.63438 7.49672 7.72157C7.40953 7.80923 7.35938 7.9297 7.35938 8.05345C7.35938 8.17673 7.40948 8.2972 7.49672 8.38438C7.58391 8.47204 7.70484 8.52173 7.82812 8.52173C7.95141 8.52173 8.07234 8.47204 8.15948 8.38438Z" fill="#2B2F31"/>
<path d="M14.8594 8.52197C15.1182 8.52197 15.3281 8.31211 15.3281 8.05322C15.3281 7.79433 15.1182 7.58447 14.8594 7.58447H9.70312C9.44428 7.58447 9.23438 7.79433 9.23438 8.05322C9.23438 8.31211 9.44428 8.52197 9.70312 8.52197H14.8594Z" fill="#2B2F31"/>
<path d="M3.69091 14.5557C3.69091 14.4324 3.64118 14.3114 3.55352 14.2243C3.46638 14.1371 3.34545 14.0869 3.22217 14.0869C3.09884 14.0869 2.97795 14.1371 2.89076 14.2243C2.80357 14.3114 2.75342 14.4324 2.75342 14.5557C2.75342 14.6789 2.80353 14.7999 2.89076 14.8871C2.978 14.9743 3.09884 15.0244 3.22217 15.0244C3.34592 15.0244 3.46638 14.9743 3.55352 14.8871C3.64123 14.7999 3.69091 14.6789 3.69091 14.5557Z" fill="#2B2F31"/>
</g>
<defs>
<clipPath id="clip0">
<rect width="24" height="24" fill="white"/>
</clipPath>
</defs>
</svg>
