<svg width="24" height="23" viewBox="0 0 24 23" fill="none" xmlns="http://www.w3.org/2000/svg">
<path d="M17.2428 15.2464C17.016 15.3731 16.9333 15.6623 17.0582 15.8925C17.1436 16.05 17.3039 16.139 17.4693 16.139C17.5457 16.139 17.6232 16.12 17.6949 16.0799C18.872 15.4226 19.6058 14.1672 19.6099 12.8038C19.6107 12.5411 19.4015 12.3275 19.1426 12.3267C18.8857 12.3262 18.6732 12.5382 18.6724 12.8009C18.6693 13.8187 18.1215 14.7557 17.2428 15.2464Z" fill="#2B2F31"/>
<path d="M18.9772 10.4271C18.7201 10.4574 18.5358 10.6934 18.5657 10.9544C18.5659 10.9557 18.5665 10.961 18.5667 10.9623L18.5679 10.9727C18.5968 11.214 18.799 11.3909 19.0326 11.3909C19.0515 11.3909 19.0707 11.3898 19.0899 11.3874C19.3468 11.3556 19.5298 11.1185 19.4985 10.8577L19.4971 10.8462L19.497 10.8448C19.467 10.5837 19.2345 10.3967 18.9772 10.4271Z" fill="#2B2F31"/>
<path d="M17.4147 3.32354C17.1576 3.35384 16.9733 3.58993 17.0032 3.85089C17.0034 3.85222 17.004 3.8575 17.0042 3.85883L17.0054 3.8692C17.0343 4.11047 17.2365 4.28742 17.4701 4.28742C17.489 4.28742 17.5082 4.28628 17.5274 4.2839C17.7843 4.25213 17.9673 4.01495 17.936 3.75418L17.9346 3.74267L17.9345 3.74124C17.9045 3.48023 17.672 3.29319 17.4147 3.32354Z" fill="#2B2F31"/>
<path d="M2.46094 13.241C5.99351 24.4725 25.6614 19.7089 20.3148 6.51074" stroke="#2B2F31" stroke-linecap="round"/>
<path d="M21.8467 6.22778C21.8467 6.22778 24.9014 8.53595 22.4021 9.62471" stroke="#2B2F31" stroke-linecap="round"/>
<path d="M14.7692 9.73194C12.2695 7.97097 4.30762 12.7385 4.30762 12.7385" stroke="#2B2F31" stroke-linecap="round"/>
<path d="M4.30762 12.7385C4.30762 12.7385 4.30762 14.8882 6.76916 14.3508" stroke="#2B2F31" stroke-linecap="round"/>
<path d="M6.88281 14.2253C6.88281 14.2253 7.37181 16.2605 9.87647 15.2175" stroke="#2B2F31" stroke-linecap="round"/>
<path d="M10.1533 15.5246C12.3568 18.2511 15.9994 13.8708 15.9994 13.8708" stroke="#2B2F31" stroke-linecap="round"/>
<path d="M8.30949 2.34346C7.64754 0.617632 3.62468 1.32567 4.84681 4.2463" stroke="#2B2F31" stroke-linecap="round"/>
<path d="M12.008 2.24989C12.3043 0.485749 8.64315 -0.465544 8.22559 2.55967" stroke="#2B2F31" stroke-linecap="round"/>
<path d="M12 2.26465V7.64311" stroke="#2B2F31" stroke-linecap="round"/>
<path d="M4.67952 4.28919C3.23077 3.10173 0.37338 5.41257 2.90701 7.37883" stroke="#2B2F31" stroke-linecap="round"/>
<path d="M2.91001 7.53792C1.08916 6.92123 -0.649563 10.0344 2.49085 11.0102" stroke="#2B2F31" stroke-linecap="round"/>
<path d="M14.7695 9.32956C14.7695 9.32956 15.711 9.81289 15.1932 4.67208C14.6754 -0.468715 20.8888 -0.292959 20.6063 4.40845" stroke="#2B2F31" stroke-linecap="round"/>
<path d="M20.6172 4.24609L23.3864 4.81225" stroke="#2B2F31" stroke-linecap="round"/>
<path d="M9.23096 19.8157L10.1541 21.5141" stroke="#2B2F31" stroke-linecap="round"/>
<path d="M13.5391 19.8157L13.8468 21.5141" stroke="#2B2F31" stroke-linecap="round"/>
<path d="M10.0664 21.5001L12.0824 21.4658" stroke="#2B2F31" stroke-linecap="round"/>
<path d="M14.2188 21.4569L16.2346 21.4226" stroke="#2B2F31" stroke-linecap="round"/>
</svg>
